<svg xmlns="http://www.w3.org/2000/svg" width="323" height="383" viewBox="179405 1874673 322910 382709"><path fill="#1D93C9" style="fill:var(--icon-color,#1D93C9)" d="M463820.00 1991279.65 L483628.50 1971471.63 C486543.50 1968556.12 486543.50 1963847.12 483628.50 1960932.11 L462475.00 1939703.58 C459559.50 1936788.58 454850.50 1936788.58 451935.50 1939703.58 L430258.50 1961380.61 C410151.50 1948000.60 387353.50 1939330.08 363359.00 1935966.08 L363359.00 1919521.56 L367096.50 1919521.56 C371207.50 1919521.56 374571.50 1916158.05 374571.50 1912047.05 L374571.50 1882148.01 C374571.50 1878036.50 371207.50 1874673.00 367096.50 1874673.00 L314773.00 1874673.00 C310662.00 1874673.00 307298.50 1878036.50 307298.50 1882148.01 L307298.50 1912047.05 C307298.50 1916158.05 310662.00 1919521.56 314773.00 1919521.56 L318510.50 1919521.56 L318510.50 1936041.08 C283902.50 1940825.09 251910.50 1956671.61 226795.00 1981786.64 C196223.00 2012283.68 179405.00 2052797.23 179405.00 2095926.79 C179405.00 2139056.35 196223.00 2179569.40 226720.50 2210066.44 C257217.50 2240563.98 297730.50 2257382.00 340860.00 2257382.00 C383989.50 2257382.00 424503.00 2240563.98 455000.00 2210066.44 C485497.00 2179569.40 502315.50 2139056.35 502315.50 2095926.79 C502315.50 2057132.74 488711.00 2020431.19 463820.00 1991279.65 Z M457167.50 1955625.11 L467707.00 1966164.62 L453505.00 1980366.64 C449917.00 1976853.13 446179.50 1973564.63 442293.00 1970425.13 L457167.50 1955625.11 Z M322173.00 1889622.52 L359547.00 1889622.52 L359547.00 1904572.04 L322173.00 1904572.04 L322173.00 1889622.52 Z M348335.00 1919521.56 L348335.00 1934620.58 C345868.50 1934471.08 343327.00 1934471.08 340860.00 1934471.08 C338393.50 1934471.08 335852.00 1934546.08 333385.50 1934620.58 L333385.50 1919521.56 L348335.00 1919521.56 Z M340860.00 2242432.48 C260058.00 2242432.48 194354.50 2176728.89 194354.50 2095926.79 C194354.50 2015124.18 260058.00 1949421.10 340860.00 1949421.10 C421662.50 1949421.10 487366.00 2015124.18 487366.00 2095926.79 C487366.00 2176728.89 421662.50 2242432.48 340860.00 2242432.48 Z"></path><path fill="#1D93C9" style="fill:var(--icon-color,#1D93C9)" d="M348409.50 2074847.76 L348484.00 2002566.67 C348484.00 1998455.16 345120.50 1995091.66 341009.50 1995091.66 L341009.50 1995091.66 C336898.00 1995091.66 333534.50 1998455.16 333534.50 2002566.67 L333460.00 2074847.76 C324714.50 2077912.27 318435.50 2086209.28 318435.50 2096001.29 C318435.50 2105718.30 324714.50 2114090.31 333385.00 2117154.82 L333385.00 2128890.33 C333385.00 2133001.34 336748.50 2136365.34 340860.00 2136365.34 L340860.00 2136365.34 C344971.00 2136365.34 348334.50 2133001.34 348334.50 2128890.33 L348334.50 2117154.82 C357005.50 2114090.31 363284.00 2105793.30 363284.00 2096001.29 C363284.00 2086209.28 357080.00 2077912.27 348409.50 2074847.76 Z M340860.00 2103401.30 C336748.50 2103401.30 333385.00 2100037.79 333385.00 2095926.29 C333385.00 2091815.28 336748.50 2088451.78 340860.00 2088451.78 C344971.00 2088451.78 348334.50 2091815.28 348334.50 2095926.29 C348334.50 2100037.79 344971.00 2103401.30 340860.00 2103401.30 Z"></path></svg>