<?xml version="1.0" encoding="utf-8" standalone="no"?>
<!DOCTYPE svg PUBLIC "-//W3C//DTD SVG 1.1//EN"
  "http://www.w3.org/Graphics/SVG/1.1/DTD/svg11.dtd">
<svg xmlns:xlink="http://www.w3.org/1999/xlink" width="510.433706pt" height="285.055pt" viewBox="0 0 510.433706 285.055" xmlns="http://www.w3.org/2000/svg" version="1.1">
 <metadata>
  <rdf:RDF xmlns:dc="http://purl.org/dc/elements/1.1/" xmlns:cc="http://creativecommons.org/ns#" xmlns:rdf="http://www.w3.org/1999/02/22-rdf-syntax-ns#">
   <cc:Work>
    <dc:type rdf:resource="http://purl.org/dc/dcmitype/StillImage"/>
    <dc:date>2026-08-25T10:19:38.485995</dc:date>
    <dc:format>image/svg+xml</dc:format>
    <dc:creator>
     <cc:Agent>
      <dc:title>Matplotlib v3.11.1, https://matplotlib.org/</dc:title>
     </cc:Agent>
    </dc:creator>
   </cc:Work>
  </rdf:RDF>
 </metadata>
 <defs>
  <style type="text/css">*{stroke-linejoin: round; stroke-linecap: butt}</style>
 </defs>
 <g id="figure_1">
  <g id="patch_1">
   <path d="M 0 285.055 
L 510.433706 285.055 
L 510.433706 0 
L 0 0 
z
" style="fill: #ffffff"/>
  </g>
  <g id="axes_1">
   <g id="patch_2">
    <path d="M 69.6175 246.855 
L 449.0575 246.855 
L 449.0575 25.095 
L 69.6175 25.095 
z
" style="fill: #ffffff"/>
   </g>
   <g id="matplotlib.axis_1">
    <g id="xtick_1">
     <g id="line2d_1">
      <defs>
       <path id="m10880f4c6c" d="M 0 0 
L 0 3.5 
" style="stroke: #043962; stroke-width: 0.8"/>
      </defs>
      <g>
       <use xlink:href="#m10880f4c6c" x="88.829652" y="246.855" style="fill: #043962; stroke: #043962; stroke-width: 0.8"/>
      </g>
     </g>
     <g id="text_1">
      <!-- 0.2 -->
      <g style="fill: #043962" transform="translate(82.498402 261.355) scale(0.1 -0.1)">
       <defs>
        <path id="Calibri-3ec" d="M 3022 2031 
Q 3022 1566 2948 1181 
Q 2875 797 2704 520 
Q 2534 244 2259 92 
Q 1984 -59 1581 -59 
Q 1200 -59 939 77 
Q 678 213 518 477 
Q 359 741 292 1127 
Q 225 1513 225 2013 
Q 225 2475 300 2861 
Q 375 3247 544 3523 
Q 713 3800 988 3951 
Q 1263 4103 1663 4103 
Q 2047 4103 2308 3967 
Q 2569 3831 2728 3567 
Q 2888 3303 2955 2917 
Q 3022 2531 3022 2031 
z
M 2472 1994 
Q 2472 2297 2450 2537 
Q 2428 2778 2386 2962 
Q 2344 3147 2276 3280 
Q 2209 3413 2115 3498 
Q 2022 3584 1901 3623 
Q 1781 3663 1631 3663 
Q 1366 3663 1200 3538 
Q 1034 3413 939 3194 
Q 844 2975 809 2681 
Q 775 2388 775 2050 
Q 775 1597 822 1280 
Q 869 963 970 763 
Q 1072 563 1230 472 
Q 1388 381 1613 381 
Q 1788 381 1920 437 
Q 2053 494 2148 598 
Q 2244 703 2306 850 
Q 2369 997 2406 1175 
Q 2444 1353 2458 1561 
Q 2472 1769 2472 1994 
z
" transform="scale(0.015625)"/>
        <path id="Calibri-358" d="M 1144 341 
Q 1144 119 1070 45 
Q 997 -28 803 -28 
Q 616 -28 544 44 
Q 472 116 472 331 
Q 472 553 545 626 
Q 619 700 813 700 
Q 1000 700 1072 628 
Q 1144 556 1144 341 
z
" transform="scale(0.015625)"/>
        <path id="Calibri-3ee" d="M 2888 231 
Q 2888 175 2880 131 
Q 2872 88 2858 58 
Q 2844 28 2820 14 
Q 2797 0 2769 0 
L 534 0 
Q 491 0 458 11 
Q 425 22 401 47 
Q 378 72 367 119 
Q 356 166 356 234 
Q 356 297 361 344 
Q 366 391 381 427 
Q 397 463 420 498 
Q 444 534 481 575 
L 1266 1406 
Q 1538 1694 1702 1922 
Q 1866 2150 1955 2337 
Q 2044 2525 2072 2678 
Q 2100 2831 2100 2966 
Q 2100 3100 2056 3220 
Q 2013 3341 1930 3431 
Q 1847 3522 1722 3575 
Q 1597 3628 1434 3628 
Q 1244 3628 1092 3575 
Q 941 3522 827 3459 
Q 713 3397 636 3344 
Q 559 3291 522 3291 
Q 500 3291 483 3303 
Q 466 3316 455 3344 
Q 444 3372 437 3419 
Q 431 3466 431 3531 
Q 431 3578 434 3612 
Q 438 3647 445 3672 
Q 453 3697 465 3719 
Q 478 3741 515 3773 
Q 553 3806 645 3862 
Q 738 3919 877 3973 
Q 1016 4028 1183 4065 
Q 1350 4103 1534 4103 
Q 1828 4103 2048 4020 
Q 2269 3938 2414 3794 
Q 2559 3650 2631 3459 
Q 2703 3269 2703 3053 
Q 2703 2859 2668 2667 
Q 2634 2475 2523 2251 
Q 2413 2028 2203 1754 
Q 1994 1481 1647 1125 
L 1006 456 
L 2766 456 
Q 2791 456 2814 442 
Q 2838 428 2855 400 
Q 2872 372 2880 330 
Q 2888 288 2888 231 
z
" transform="scale(0.015625)"/>
       </defs>
       <use xlink:href="#Calibri-3ec"/>
       <use xlink:href="#Calibri-358" transform="translate(50.6875 0)"/>
       <use xlink:href="#Calibri-3ee" transform="translate(75.9375 0)"/>
      </g>
     </g>
    </g>
    <g id="xtick_2">
     <g id="line2d_2">
      <g>
       <use xlink:href="#m10880f4c6c" x="136.860032" y="246.855" style="fill: #043962; stroke: #043962; stroke-width: 0.8"/>
      </g>
     </g>
     <g id="text_2">
      <!-- 0.3 -->
      <g style="fill: #043962" transform="translate(130.528782 261.355) scale(0.1 -0.1)">
       <defs>
        <path id="Calibri-3ef" d="M 2856 1156 
Q 2856 878 2759 654 
Q 2663 431 2481 272 
Q 2300 113 2034 27 
Q 1769 -59 1434 -59 
Q 1231 -59 1054 -26 
Q 878 6 740 51 
Q 603 97 512 145 
Q 422 194 398 216 
Q 375 238 362 259 
Q 350 281 340 312 
Q 331 344 326 389 
Q 322 434 322 500 
Q 322 613 344 656 
Q 366 700 406 700 
Q 434 700 517 650 
Q 600 600 729 542 
Q 859 484 1032 434 
Q 1206 384 1419 384 
Q 1625 384 1781 437 
Q 1938 491 2044 587 
Q 2150 684 2203 817 
Q 2256 950 2256 1106 
Q 2256 1278 2189 1415 
Q 2122 1553 1992 1653 
Q 1863 1753 1673 1806 
Q 1484 1859 1244 1859 
L 859 1859 
Q 834 1859 811 1870 
Q 788 1881 770 1906 
Q 753 1931 742 1972 
Q 731 2013 731 2078 
Q 731 2138 740 2177 
Q 750 2216 767 2239 
Q 784 2263 806 2273 
Q 828 2284 856 2284 
L 1209 2284 
Q 1416 2284 1580 2337 
Q 1744 2391 1858 2491 
Q 1972 2591 2033 2730 
Q 2094 2869 2094 3041 
Q 2094 3166 2053 3280 
Q 2013 3394 1931 3478 
Q 1850 3563 1723 3611 
Q 1597 3659 1431 3659 
Q 1250 3659 1098 3604 
Q 947 3550 828 3487 
Q 709 3425 631 3370 
Q 553 3316 522 3316 
Q 500 3316 483 3323 
Q 466 3331 455 3354 
Q 444 3378 439 3420 
Q 434 3463 434 3531 
Q 434 3578 437 3614 
Q 441 3650 450 3676 
Q 459 3703 471 3725 
Q 484 3747 514 3776 
Q 544 3806 634 3862 
Q 725 3919 858 3973 
Q 991 4028 1164 4065 
Q 1338 4103 1538 4103 
Q 1819 4103 2031 4031 
Q 2244 3959 2386 3828 
Q 2528 3697 2598 3514 
Q 2669 3331 2669 3109 
Q 2669 2919 2619 2755 
Q 2569 2591 2472 2464 
Q 2375 2338 2234 2248 
Q 2094 2159 1909 2125 
L 1909 2119 
Q 2119 2097 2292 2014 
Q 2466 1931 2591 1806 
Q 2716 1681 2786 1514 
Q 2856 1347 2856 1156 
z
" transform="scale(0.015625)"/>
       </defs>
       <use xlink:href="#Calibri-3ec"/>
       <use xlink:href="#Calibri-358" transform="translate(50.6875 0)"/>
       <use xlink:href="#Calibri-3ef" transform="translate(75.9375 0)"/>
      </g>
     </g>
    </g>
    <g id="xtick_3">
     <g id="line2d_3">
      <g>
       <use xlink:href="#m10880f4c6c" x="184.890411" y="246.855" style="fill: #043962; stroke: #043962; stroke-width: 0.8"/>
      </g>
     </g>
     <g id="text_3">
      <!-- 0.4 -->
      <g style="fill: #043962" transform="translate(178.559161 261.355) scale(0.1 -0.1)">
       <defs>
        <path id="Calibri-3f0" d="M 3059 1150 
Q 3059 1047 3028 987 
Q 2997 928 2941 928 
L 2484 928 
L 2484 78 
Q 2484 53 2471 36 
Q 2459 19 2428 6 
Q 2397 -6 2347 -12 
Q 2297 -19 2219 -19 
Q 2144 -19 2094 -12 
Q 2044 -6 2014 6 
Q 1984 19 1973 36 
Q 1963 53 1963 78 
L 1963 928 
L 294 928 
Q 256 928 231 937 
Q 206 947 186 972 
Q 166 997 158 1044 
Q 150 1091 150 1166 
Q 150 1225 153 1272 
Q 156 1319 165 1358 
Q 175 1397 190 1433 
Q 206 1469 228 1509 
L 1684 3966 
Q 1700 3991 1729 4009 
Q 1759 4028 1806 4040 
Q 1853 4053 1922 4058 
Q 1991 4063 2084 4063 
Q 2188 4063 2264 4055 
Q 2341 4047 2387 4034 
Q 2434 4022 2459 4001 
Q 2484 3981 2484 3953 
L 2484 1372 
L 2941 1372 
Q 2994 1372 3026 1317 
Q 3059 1263 3059 1150 
z
M 1963 3591 
L 1956 3591 
L 641 1372 
L 1963 1372 
L 1963 3591 
z
" transform="scale(0.015625)"/>
       </defs>
       <use xlink:href="#Calibri-3ec"/>
       <use xlink:href="#Calibri-358" transform="translate(50.6875 0)"/>
       <use xlink:href="#Calibri-3f0" transform="translate(75.9375 0)"/>
      </g>
     </g>
    </g>
    <g id="xtick_4">
     <g id="line2d_4">
      <g>
       <use xlink:href="#m10880f4c6c" x="232.920791" y="246.855" style="fill: #043962; stroke: #043962; stroke-width: 0.8"/>
      </g>
     </g>
     <g id="text_4">
      <!-- 0.5 -->
      <g style="fill: #043962" transform="translate(226.589541 261.355) scale(0.1 -0.1)">
       <defs>
        <path id="Calibri-3f1" d="M 2869 1300 
Q 2869 975 2759 722 
Q 2650 469 2450 295 
Q 2250 122 1973 31 
Q 1697 -59 1359 -59 
Q 1172 -59 1003 -32 
Q 834 -6 703 33 
Q 572 72 487 109 
Q 403 147 379 169 
Q 356 191 347 209 
Q 338 228 330 254 
Q 322 281 319 322 
Q 316 363 316 419 
Q 316 472 320 514 
Q 325 556 337 582 
Q 350 609 367 621 
Q 384 634 406 634 
Q 438 634 503 595 
Q 569 556 680 511 
Q 791 466 955 425 
Q 1119 384 1344 384 
Q 1553 384 1728 434 
Q 1903 484 2029 590 
Q 2156 697 2228 858 
Q 2300 1019 2300 1250 
Q 2300 1444 2239 1592 
Q 2178 1741 2051 1839 
Q 1925 1938 1731 1986 
Q 1538 2034 1269 2034 
Q 1078 2034 940 2015 
Q 803 1997 684 1997 
Q 597 1997 559 2037 
Q 522 2078 522 2194 
L 522 3841 
Q 522 3944 570 3994 
Q 619 4044 709 4044 
L 2500 4044 
Q 2525 4044 2548 4030 
Q 2572 4016 2587 3987 
Q 2603 3959 2611 3915 
Q 2619 3872 2619 3813 
Q 2619 3700 2587 3637 
Q 2556 3575 2500 3575 
L 991 3575 
L 991 2441 
Q 1100 2456 1214 2459 
Q 1328 2463 1478 2463 
Q 1825 2463 2084 2380 
Q 2344 2297 2517 2145 
Q 2691 1994 2780 1778 
Q 2869 1563 2869 1300 
z
" transform="scale(0.015625)"/>
       </defs>
       <use xlink:href="#Calibri-3ec"/>
       <use xlink:href="#Calibri-358" transform="translate(50.6875 0)"/>
       <use xlink:href="#Calibri-3f1" transform="translate(75.9375 0)"/>
      </g>
     </g>
    </g>
    <g id="xtick_5">
     <g id="line2d_5">
      <g>
       <use xlink:href="#m10880f4c6c" x="280.951171" y="246.855" style="fill: #043962; stroke: #043962; stroke-width: 0.8"/>
      </g>
     </g>
     <g id="text_5">
      <!-- 0.6 -->
      <g style="fill: #043962" transform="translate(274.619921 261.355) scale(0.1 -0.1)">
       <defs>
        <path id="Calibri-3f2" d="M 2991 1309 
Q 2991 1044 2909 795 
Q 2828 547 2659 358 
Q 2491 169 2231 55 
Q 1972 -59 1619 -59 
Q 1366 -59 1172 3 
Q 978 66 834 181 
Q 691 297 595 465 
Q 500 634 442 850 
Q 384 1066 359 1322 
Q 334 1578 334 1872 
Q 334 2131 362 2397 
Q 391 2663 462 2909 
Q 534 3156 657 3373 
Q 781 3591 967 3752 
Q 1153 3913 1412 4006 
Q 1672 4100 2016 4100 
Q 2131 4100 2250 4086 
Q 2369 4072 2469 4048 
Q 2569 4025 2637 3997 
Q 2706 3969 2728 3951 
Q 2750 3934 2761 3914 
Q 2772 3894 2778 3870 
Q 2784 3847 2787 3817 
Q 2791 3788 2791 3744 
Q 2791 3688 2789 3647 
Q 2788 3606 2777 3581 
Q 2766 3556 2748 3543 
Q 2731 3531 2703 3531 
Q 2669 3531 2609 3553 
Q 2550 3575 2465 3601 
Q 2381 3628 2261 3650 
Q 2141 3672 1981 3672 
Q 1691 3672 1481 3553 
Q 1272 3434 1139 3234 
Q 1006 3034 942 2770 
Q 878 2506 869 2219 
Q 950 2266 1051 2312 
Q 1153 2359 1273 2396 
Q 1394 2434 1528 2457 
Q 1663 2481 1816 2481 
Q 2144 2481 2369 2392 
Q 2594 2303 2733 2145 
Q 2872 1988 2931 1773 
Q 2991 1559 2991 1309 
z
M 2447 1259 
Q 2447 1441 2411 1589 
Q 2375 1738 2290 1841 
Q 2206 1944 2065 2000 
Q 1925 2056 1719 2056 
Q 1603 2056 1487 2036 
Q 1372 2016 1264 1980 
Q 1156 1944 1057 1895 
Q 959 1847 878 1791 
Q 878 1388 929 1116 
Q 981 844 1079 680 
Q 1178 516 1325 445 
Q 1472 375 1669 375 
Q 1869 375 2016 450 
Q 2163 525 2259 651 
Q 2356 778 2401 936 
Q 2447 1094 2447 1259 
z
" transform="scale(0.015625)"/>
       </defs>
       <use xlink:href="#Calibri-3ec"/>
       <use xlink:href="#Calibri-358" transform="translate(50.6875 0)"/>
       <use xlink:href="#Calibri-3f2" transform="translate(75.9375 0)"/>
      </g>
     </g>
    </g>
    <g id="xtick_6">
     <g id="line2d_6">
      <g>
       <use xlink:href="#m10880f4c6c" x="328.981551" y="246.855" style="fill: #043962; stroke: #043962; stroke-width: 0.8"/>
      </g>
     </g>
     <g id="text_6">
      <!-- 0.7 -->
      <g style="fill: #043962" transform="translate(322.650301 261.355) scale(0.1 -0.1)">
       <defs>
        <path id="Calibri-3f3" d="M 2947 3813 
Q 2947 3756 2942 3711 
Q 2938 3666 2930 3623 
Q 2922 3581 2908 3542 
Q 2894 3503 2875 3459 
L 1419 103 
Q 1403 66 1379 42 
Q 1356 19 1320 5 
Q 1284 -9 1228 -14 
Q 1172 -19 1091 -19 
Q 984 -19 925 -9 
Q 866 0 839 20 
Q 813 41 816 70 
Q 819 100 838 141 
L 2369 3572 
L 428 3572 
Q 369 3572 339 3634 
Q 309 3697 309 3809 
Q 309 3869 317 3912 
Q 325 3956 340 3986 
Q 356 4016 378 4030 
Q 400 4044 428 4044 
L 2784 4044 
Q 2828 4044 2861 4034 
Q 2894 4025 2911 3997 
Q 2928 3969 2937 3925 
Q 2947 3881 2947 3813 
z
" transform="scale(0.015625)"/>
       </defs>
       <use xlink:href="#Calibri-3ec"/>
       <use xlink:href="#Calibri-358" transform="translate(50.6875 0)"/>
       <use xlink:href="#Calibri-3f3" transform="translate(75.9375 0)"/>
      </g>
     </g>
    </g>
    <g id="xtick_7">
     <g id="line2d_7">
      <g>
       <use xlink:href="#m10880f4c6c" x="377.01193" y="246.855" style="fill: #043962; stroke: #043962; stroke-width: 0.8"/>
      </g>
     </g>
     <g id="text_7">
      <!-- 0.8 -->
      <g style="fill: #043962" transform="translate(370.68068 261.355) scale(0.1 -0.1)">
       <defs>
        <path id="Calibri-3f4" d="M 2981 1038 
Q 2981 775 2887 570 
Q 2794 366 2617 225 
Q 2441 84 2181 12 
Q 1922 -59 1588 -59 
Q 1275 -59 1028 6 
Q 781 72 609 200 
Q 438 328 347 515 
Q 256 703 256 944 
Q 256 1134 318 1293 
Q 381 1453 498 1587 
Q 616 1722 787 1839 
Q 959 1956 1175 2063 
Q 988 2159 844 2267 
Q 700 2375 600 2501 
Q 500 2628 448 2772 
Q 397 2916 397 3084 
Q 397 3297 473 3483 
Q 550 3669 704 3806 
Q 859 3944 1098 4023 
Q 1338 4103 1656 4103 
Q 1963 4103 2186 4029 
Q 2409 3956 2554 3829 
Q 2700 3703 2769 3531 
Q 2838 3359 2838 3163 
Q 2838 3003 2786 2856 
Q 2734 2709 2634 2578 
Q 2534 2447 2389 2333 
Q 2244 2219 2056 2119 
Q 2278 2009 2451 1893 
Q 2625 1778 2742 1645 
Q 2859 1513 2920 1364 
Q 2981 1216 2981 1038 
z
M 2306 3113 
Q 2306 3244 2261 3350 
Q 2216 3456 2128 3531 
Q 2041 3606 1911 3645 
Q 1781 3684 1616 3684 
Q 1278 3684 1104 3531 
Q 931 3378 931 3113 
Q 931 2991 973 2886 
Q 1016 2781 1105 2687 
Q 1194 2594 1330 2505 
Q 1466 2416 1653 2319 
Q 1969 2481 2137 2678 
Q 2306 2875 2306 3113 
z
M 2438 981 
Q 2438 1125 2384 1242 
Q 2331 1359 2223 1461 
Q 2116 1563 1955 1658 
Q 1794 1753 1581 1856 
Q 1384 1759 1236 1662 
Q 1088 1566 992 1462 
Q 897 1359 848 1245 
Q 800 1131 800 994 
Q 800 691 1008 525 
Q 1216 359 1628 359 
Q 2028 359 2233 526 
Q 2438 694 2438 981 
z
" transform="scale(0.015625)"/>
       </defs>
       <use xlink:href="#Calibri-3ec"/>
       <use xlink:href="#Calibri-358" transform="translate(50.6875 0)"/>
       <use xlink:href="#Calibri-3f4" transform="translate(75.9375 0)"/>
      </g>
     </g>
    </g>
    <g id="xtick_8">
     <g id="line2d_8">
      <g>
       <use xlink:href="#m10880f4c6c" x="425.04231" y="246.855" style="fill: #043962; stroke: #043962; stroke-width: 0.8"/>
      </g>
     </g>
     <g id="text_8">
      <!-- 0.9 -->
      <g style="fill: #043962" transform="translate(418.71106 261.355) scale(0.1 -0.1)">
       <defs>
        <path id="Calibri-3f5" d="M 2919 2181 
Q 2919 1919 2887 1650 
Q 2856 1381 2781 1132 
Q 2706 884 2579 667 
Q 2453 450 2261 287 
Q 2069 125 1805 33 
Q 1541 -59 1191 -59 
Q 1056 -59 929 -42 
Q 803 -25 701 0 
Q 600 25 531 53 
Q 463 81 431 109 
Q 400 138 386 186 
Q 372 234 372 316 
Q 372 384 376 425 
Q 381 466 390 487 
Q 400 509 417 517 
Q 434 525 459 525 
Q 494 525 556 501 
Q 619 478 714 450 
Q 809 422 937 398 
Q 1066 375 1225 375 
Q 1528 375 1745 492 
Q 1963 609 2100 806 
Q 2238 1003 2306 1262 
Q 2375 1522 2381 1809 
Q 2216 1713 1984 1638 
Q 1753 1563 1453 1563 
Q 1116 1563 886 1655 
Q 656 1747 517 1906 
Q 378 2066 317 2284 
Q 256 2503 256 2763 
Q 256 3031 334 3273 
Q 413 3516 578 3700 
Q 744 3884 1000 3993 
Q 1256 4103 1613 4103 
Q 1866 4103 2061 4039 
Q 2256 3975 2400 3854 
Q 2544 3734 2644 3564 
Q 2744 3394 2805 3178 
Q 2866 2963 2892 2711 
Q 2919 2459 2919 2181 
z
M 2372 2241 
Q 2372 2641 2319 2914 
Q 2266 3188 2162 3356 
Q 2059 3525 1909 3600 
Q 1759 3675 1563 3675 
Q 1359 3675 1215 3601 
Q 1072 3528 980 3404 
Q 888 3281 844 3125 
Q 800 2969 800 2803 
Q 800 2619 839 2466 
Q 878 2313 965 2206 
Q 1053 2100 1193 2042 
Q 1334 1984 1541 1984 
Q 1775 1984 1994 2054 
Q 2213 2125 2372 2241 
z
" transform="scale(0.015625)"/>
       </defs>
       <use xlink:href="#Calibri-3ec"/>
       <use xlink:href="#Calibri-358" transform="translate(50.6875 0)"/>
       <use xlink:href="#Calibri-3f5" transform="translate(75.9375 0)"/>
      </g>
     </g>
    </g>
    <g id="text_9">
     <!-- AUC with 95% bootstrap interval -->
     <g style="fill: #043962" transform="translate(193.291406 275.355) scale(0.1 -0.1)">
      <defs>
       <path id="Calibri-4" d="M 3566 191 
Q 3591 122 3592 80 
Q 3594 38 3569 16 
Q 3544 -6 3486 -12 
Q 3428 -19 3331 -19 
Q 3234 -19 3176 -14 
Q 3119 -9 3089 2 
Q 3059 13 3045 31 
Q 3031 50 3019 78 
L 2672 1063 
L 991 1063 
L 659 91 
Q 650 63 634 42 
Q 619 22 589 8 
Q 559 -6 504 -12 
Q 450 -19 363 -19 
Q 272 -19 214 -11 
Q 156 -3 132 19 
Q 109 41 111 83 
Q 113 125 138 194 
L 1494 3950 
Q 1506 3984 1526 4006 
Q 1547 4028 1586 4040 
Q 1625 4053 1686 4058 
Q 1747 4063 1841 4063 
Q 1941 4063 2006 4058 
Q 2072 4053 2112 4040 
Q 2153 4028 2175 4004 
Q 2197 3981 2209 3947 
L 3566 191 
z
M 1825 3506 
L 1822 3506 
L 1125 1491 
L 2531 1491 
L 1825 3506 
z
" transform="scale(0.015625)"/>
       <path id="Calibri-68" d="M 3578 1494 
Q 3578 1125 3470 836 
Q 3363 547 3163 347 
Q 2963 147 2675 44 
Q 2388 -59 2022 -59 
Q 1688 -59 1413 37 
Q 1138 134 941 323 
Q 744 513 637 797 
Q 531 1081 531 1453 
L 531 3963 
Q 531 3988 543 4006 
Q 556 4025 587 4036 
Q 619 4047 669 4055 
Q 719 4063 800 4063 
Q 875 4063 928 4055 
Q 981 4047 1011 4036 
Q 1041 4025 1053 4006 
Q 1066 3988 1066 3963 
L 1066 1519 
Q 1066 1238 1134 1028 
Q 1203 819 1333 680 
Q 1463 541 1645 470 
Q 1828 400 2056 400 
Q 2291 400 2473 469 
Q 2656 538 2782 675 
Q 2909 813 2976 1016 
Q 3044 1219 3044 1491 
L 3044 3963 
Q 3044 3988 3056 4006 
Q 3069 4025 3100 4036 
Q 3131 4047 3182 4055 
Q 3234 4063 3313 4063 
Q 3388 4063 3439 4055 
Q 3491 4047 3520 4036 
Q 3550 4025 3564 4006 
Q 3578 3988 3578 3963 
L 3578 1494 
z
" transform="scale(0.015625)"/>
       <path id="Calibri-12" d="M 3238 572 
Q 3238 522 3234 484 
Q 3231 447 3223 419 
Q 3216 391 3203 369 
Q 3191 347 3159 315 
Q 3128 284 3028 220 
Q 2928 156 2779 95 
Q 2631 34 2439 -8 
Q 2247 -50 2019 -50 
Q 1625 -50 1308 81 
Q 991 213 767 469 
Q 544 725 423 1101 
Q 303 1478 303 1969 
Q 303 2472 433 2865 
Q 563 3259 797 3532 
Q 1031 3806 1357 3950 
Q 1684 4094 2081 4094 
Q 2256 4094 2422 4061 
Q 2588 4028 2728 3978 
Q 2869 3928 2978 3862 
Q 3088 3797 3130 3755 
Q 3172 3713 3184 3691 
Q 3197 3669 3205 3639 
Q 3213 3609 3217 3568 
Q 3222 3528 3222 3472 
Q 3222 3409 3215 3365 
Q 3209 3322 3196 3292 
Q 3184 3263 3167 3248 
Q 3150 3234 3125 3234 
Q 3081 3234 3003 3295 
Q 2925 3356 2801 3429 
Q 2678 3503 2501 3564 
Q 2325 3625 2078 3625 
Q 1809 3625 1589 3517 
Q 1369 3409 1212 3200 
Q 1056 2991 970 2689 
Q 884 2388 884 2000 
Q 884 1616 967 1320 
Q 1050 1025 1204 826 
Q 1359 628 1584 526 
Q 1809 425 2094 425 
Q 2334 425 2514 484 
Q 2694 544 2820 617 
Q 2947 691 3028 750 
Q 3109 809 3156 809 
Q 3178 809 3193 800 
Q 3209 791 3218 764 
Q 3228 738 3233 691 
Q 3238 644 3238 572 
z
" transform="scale(0.015625)"/>
       <path id="Calibri-3" transform="scale(0.015625)"/>
       <path id="Calibri-1c1" d="M 4413 2897 
Q 4413 2875 4406 2844 
Q 4400 2813 4384 2766 
L 3556 94 
Q 3547 59 3526 37 
Q 3506 16 3470 3 
Q 3434 -9 3371 -14 
Q 3309 -19 3216 -19 
Q 3119 -19 3053 -12 
Q 2988 -6 2948 6 
Q 2909 19 2890 41 
Q 2872 63 2863 94 
L 2272 2134 
L 2266 2163 
L 2259 2134 
L 1713 94 
Q 1703 59 1683 37 
Q 1663 16 1622 3 
Q 1581 -9 1517 -14 
Q 1453 -19 1359 -19 
Q 1263 -19 1202 -12 
Q 1141 -6 1102 6 
Q 1063 19 1044 41 
Q 1025 63 1016 94 
L 194 2766 
Q 178 2813 172 2844 
Q 166 2875 166 2897 
Q 166 2925 178 2942 
Q 191 2959 220 2970 
Q 250 2981 300 2984 
Q 350 2988 422 2988 
Q 509 2988 562 2983 
Q 616 2978 644 2967 
Q 672 2956 684 2936 
Q 697 2916 706 2888 
L 1384 569 
L 1391 541 
L 1397 569 
L 2019 2888 
Q 2025 2916 2039 2936 
Q 2053 2956 2081 2967 
Q 2109 2978 2157 2983 
Q 2206 2988 2284 2988 
Q 2359 2988 2407 2983 
Q 2456 2978 2484 2967 
Q 2513 2956 2525 2937 
Q 2538 2919 2544 2894 
L 3216 569 
L 3222 541 
L 3225 569 
L 3894 2888 
Q 3900 2916 3914 2936 
Q 3928 2956 3958 2967 
Q 3988 2978 4039 2983 
Q 4091 2988 4172 2988 
Q 4247 2988 4292 2984 
Q 4338 2981 4364 2968 
Q 4391 2956 4402 2940 
Q 4413 2925 4413 2897 
z
" transform="scale(0.015625)"/>
       <path id="Calibri-15d" d="M 994 78 
Q 994 53 981 36 
Q 969 19 941 6 
Q 913 -6 863 -12 
Q 813 -19 734 -19 
Q 659 -19 609 -12 
Q 559 -6 529 6 
Q 500 19 489 36 
Q 478 53 478 78 
L 478 2891 
Q 478 2913 489 2931 
Q 500 2950 529 2962 
Q 559 2975 609 2981 
Q 659 2988 734 2988 
Q 813 2988 863 2981 
Q 913 2975 941 2962 
Q 969 2950 981 2931 
Q 994 2913 994 2891 
L 994 78 
z
M 1053 3841 
Q 1053 3659 984 3593 
Q 916 3528 731 3528 
Q 550 3528 483 3592 
Q 416 3656 416 3834 
Q 416 4016 484 4081 
Q 553 4147 738 4147 
Q 919 4147 986 4083 
Q 1053 4019 1053 3841 
z
" transform="scale(0.015625)"/>
       <path id="Calibri-19a" d="M 1941 284 
Q 1941 194 1928 141 
Q 1916 88 1891 63 
Q 1866 38 1816 16 
Q 1766 -6 1702 -20 
Q 1638 -34 1566 -43 
Q 1494 -53 1422 -53 
Q 1203 -53 1047 5 
Q 891 63 791 180 
Q 691 297 645 476 
Q 600 656 600 900 
L 600 2544 
L 206 2544 
Q 159 2544 131 2594 
Q 103 2644 103 2756 
Q 103 2816 111 2856 
Q 119 2897 131 2923 
Q 144 2950 164 2961 
Q 184 2972 209 2972 
L 600 2972 
L 600 3641 
Q 600 3663 611 3681 
Q 622 3700 651 3714 
Q 681 3728 731 3734 
Q 781 3741 856 3741 
Q 934 3741 984 3734 
Q 1034 3728 1062 3714 
Q 1091 3700 1103 3681 
Q 1116 3663 1116 3641 
L 1116 2972 
L 1838 2972 
Q 1863 2972 1881 2961 
Q 1900 2950 1914 2923 
Q 1928 2897 1934 2856 
Q 1941 2816 1941 2756 
Q 1941 2644 1912 2594 
Q 1884 2544 1838 2544 
L 1116 2544 
L 1116 975 
Q 1116 684 1202 536 
Q 1288 388 1509 388 
Q 1581 388 1637 402 
Q 1694 416 1737 431 
Q 1781 447 1812 461 
Q 1844 475 1869 475 
Q 1884 475 1898 467 
Q 1913 459 1920 437 
Q 1928 416 1934 378 
Q 1941 341 1941 284 
z
" transform="scale(0.015625)"/>
       <path id="Calibri-15a" d="M 2900 78 
Q 2900 53 2887 36 
Q 2875 19 2847 6 
Q 2819 -6 2769 -12 
Q 2719 -19 2644 -19 
Q 2566 -19 2516 -12 
Q 2466 -6 2437 6 
Q 2409 19 2396 36 
Q 2384 53 2384 78 
L 2384 1725 
Q 2384 1966 2346 2112 
Q 2309 2259 2237 2365 
Q 2166 2472 2052 2528 
Q 1938 2584 1788 2584 
Q 1594 2584 1400 2446 
Q 1206 2309 994 2044 
L 994 78 
Q 994 53 981 36 
Q 969 19 941 6 
Q 913 -6 863 -12 
Q 813 -19 734 -19 
Q 659 -19 609 -12 
Q 559 -6 529 6 
Q 500 19 489 36 
Q 478 53 478 78 
L 478 4253 
Q 478 4278 489 4297 
Q 500 4316 529 4328 
Q 559 4341 609 4347 
Q 659 4353 734 4353 
Q 813 4353 863 4347 
Q 913 4341 941 4328 
Q 969 4316 981 4297 
Q 994 4278 994 4253 
L 994 2569 
Q 1216 2803 1441 2917 
Q 1666 3031 1894 3031 
Q 2175 3031 2367 2936 
Q 2559 2841 2678 2681 
Q 2797 2522 2848 2308 
Q 2900 2094 2900 1791 
L 2900 78 
z
" transform="scale(0.015625)"/>
       <path id="Calibri-439" d="M 1966 3044 
Q 1966 2803 1912 2606 
Q 1859 2410 1750 2270 
Q 1641 2131 1473 2053 
Q 1306 1975 1081 1975 
Q 853 1975 690 2047 
Q 528 2119 425 2255 
Q 322 2391 273 2586 
Q 225 2781 225 3031 
Q 225 3260 276 3453 
Q 328 3647 434 3787 
Q 541 3928 708 4009 
Q 875 4091 1103 4091 
Q 1350 4091 1517 4006 
Q 1684 3922 1784 3780 
Q 1884 3638 1925 3447 
Q 1966 3256 1966 3044 
z
M 1528 3028 
Q 1528 3203 1503 3339 
Q 1478 3475 1426 3565 
Q 1375 3656 1290 3701 
Q 1206 3747 1091 3747 
Q 981 3747 900 3703 
Q 819 3660 767 3572 
Q 716 3485 691 3355 
Q 666 3225 666 3050 
Q 666 2838 695 2695 
Q 725 2553 779 2470 
Q 834 2388 917 2355 
Q 1000 2322 1106 2322 
Q 1231 2322 1311 2369 
Q 1391 2416 1439 2508 
Q 1488 2600 1508 2730 
Q 1528 2860 1528 3028 
z
M 4350 1022 
Q 4350 781 4296 584 
Q 4243 388 4134 248 
Q 4025 109 3857 31 
Q 3690 -47 3465 -47 
Q 3237 -47 3074 25 
Q 2912 97 2809 233 
Q 2706 369 2657 564 
Q 2609 759 2609 1009 
Q 2609 1238 2660 1431 
Q 2712 1625 2818 1765 
Q 2925 1906 3092 1987 
Q 3259 2069 3487 2069 
Q 3734 2069 3901 1984 
Q 4068 1900 4168 1758 
Q 4268 1616 4309 1425 
Q 4350 1234 4350 1022 
z
M 3912 1006 
Q 3912 1181 3887 1317 
Q 3862 1453 3810 1543 
Q 3759 1634 3674 1679 
Q 3590 1725 3475 1725 
Q 3365 1725 3284 1681 
Q 3203 1638 3151 1550 
Q 3100 1463 3075 1333 
Q 3050 1203 3050 1028 
Q 3050 816 3079 673 
Q 3109 531 3163 448 
Q 3218 366 3301 333 
Q 3384 300 3490 300 
Q 3615 300 3695 347 
Q 3775 394 3823 486 
Q 3872 578 3892 708 
Q 3912 838 3912 1006 
z
M 1082 -25 
Q 1066 -53 1044 -67 
Q 1022 -81 991 -92 
Q 960 -103 916 -108 
Q 872 -113 810 -113 
Q 741 -113 699 -100 
Q 657 -88 639 -67 
Q 622 -47 627 -17 
Q 632 13 657 50 
L 3469 4078 
Q 3485 4103 3507 4120 
Q 3529 4138 3561 4147 
Q 3594 4156 3636 4161 
Q 3679 4166 3744 4166 
Q 3810 4166 3852 4155 
Q 3894 4144 3913 4122 
Q 3932 4100 3927 4069 
Q 3922 4038 3897 4003 
L 1082 -25 
z
" transform="scale(0.015625)"/>
       <path id="Calibri-10f" d="M 3066 1522 
Q 3066 1156 2986 864 
Q 2906 572 2751 365 
Q 2597 159 2372 50 
Q 2147 -59 1856 -59 
Q 1722 -59 1608 -32 
Q 1494 -6 1384 53 
Q 1275 113 1165 203 
Q 1056 294 934 422 
L 934 78 
Q 934 53 921 34 
Q 909 16 881 5 
Q 853 -6 811 -12 
Q 769 -19 703 -19 
Q 641 -19 597 -12 
Q 553 -6 525 5 
Q 497 16 487 34 
Q 478 53 478 78 
L 478 4253 
Q 478 4278 489 4297 
Q 500 4316 529 4328 
Q 559 4341 609 4347 
Q 659 4353 734 4353 
Q 813 4353 863 4347 
Q 913 4341 941 4328 
Q 969 4316 981 4297 
Q 994 4278 994 4253 
L 994 2569 
Q 1119 2697 1236 2784 
Q 1353 2872 1465 2926 
Q 1578 2981 1690 3006 
Q 1803 3031 1928 3031 
Q 2234 3031 2451 2909 
Q 2669 2788 2805 2583 
Q 2941 2378 3003 2103 
Q 3066 1828 3066 1522 
z
M 2522 1463 
Q 2522 1678 2489 1881 
Q 2456 2084 2375 2240 
Q 2294 2397 2159 2492 
Q 2025 2588 1825 2588 
Q 1725 2588 1628 2559 
Q 1531 2531 1431 2465 
Q 1331 2400 1223 2297 
Q 1116 2194 994 2038 
L 994 916 
Q 1206 656 1400 520 
Q 1594 384 1803 384 
Q 1997 384 2134 478 
Q 2272 572 2358 726 
Q 2444 881 2483 1073 
Q 2522 1266 2522 1463 
z
" transform="scale(0.015625)"/>
       <path id="Calibri-17d" d="M 3094 1516 
Q 3094 1172 3003 883 
Q 2913 594 2733 384 
Q 2553 175 2283 58 
Q 2013 -59 1656 -59 
Q 1309 -59 1051 44 
Q 794 147 622 344 
Q 450 541 365 822 
Q 281 1103 281 1459 
Q 281 1803 370 2092 
Q 459 2381 639 2590 
Q 819 2800 1087 2915 
Q 1356 3031 1716 3031 
Q 2063 3031 2320 2928 
Q 2578 2825 2750 2628 
Q 2922 2431 3008 2150 
Q 3094 1869 3094 1516 
z
M 2550 1481 
Q 2550 1709 2508 1912 
Q 2466 2116 2369 2269 
Q 2272 2422 2106 2511 
Q 1941 2600 1694 2600 
Q 1466 2600 1302 2519 
Q 1138 2438 1031 2289 
Q 925 2141 873 1937 
Q 822 1734 822 1494 
Q 822 1263 864 1059 
Q 906 856 1004 704 
Q 1103 553 1268 464 
Q 1434 375 1681 375 
Q 1906 375 2072 456 
Q 2238 538 2344 684 
Q 2450 831 2500 1034 
Q 2550 1238 2550 1481 
z
" transform="scale(0.015625)"/>
       <path id="Calibri-190" d="M 2244 844 
Q 2244 628 2164 459 
Q 2084 291 1937 175 
Q 1791 59 1587 0 
Q 1384 -59 1141 -59 
Q 991 -59 855 -36 
Q 719 -13 611 23 
Q 503 59 428 98 
Q 353 138 318 169 
Q 284 200 268 256 
Q 253 313 253 409 
Q 253 469 259 509 
Q 266 550 275 575 
Q 284 600 301 611 
Q 319 622 341 622 
Q 375 622 442 580 
Q 509 538 607 488 
Q 706 438 840 395 
Q 975 353 1150 353 
Q 1281 353 1387 381 
Q 1494 409 1572 464 
Q 1650 519 1692 603 
Q 1734 688 1734 803 
Q 1734 922 1673 1003 
Q 1613 1084 1513 1146 
Q 1413 1209 1288 1257 
Q 1163 1306 1030 1359 
Q 897 1413 770 1480 
Q 644 1547 544 1644 
Q 444 1741 383 1875 
Q 322 2009 322 2197 
Q 322 2363 386 2514 
Q 450 2666 578 2780 
Q 706 2894 898 2962 
Q 1091 3031 1347 3031 
Q 1459 3031 1571 3012 
Q 1684 2994 1775 2966 
Q 1866 2938 1930 2905 
Q 1994 2872 2026 2847 
Q 2059 2822 2070 2803 
Q 2081 2784 2086 2761 
Q 2091 2738 2095 2703 
Q 2100 2669 2100 2619 
Q 2100 2566 2095 2527 
Q 2091 2488 2080 2463 
Q 2069 2438 2053 2427 
Q 2038 2416 2019 2416 
Q 1991 2416 1937 2450 
Q 1884 2484 1800 2523 
Q 1716 2563 1602 2597 
Q 1488 2631 1341 2631 
Q 1209 2631 1109 2601 
Q 1009 2572 945 2517 
Q 881 2463 848 2388 
Q 816 2313 816 2225 
Q 816 2103 878 2020 
Q 941 1938 1041 1875 
Q 1141 1813 1269 1763 
Q 1397 1713 1530 1659 
Q 1663 1606 1792 1540 
Q 1922 1475 2022 1381 
Q 2122 1288 2183 1156 
Q 2244 1025 2244 844 
z
" transform="scale(0.015625)"/>
       <path id="Calibri-18c" d="M 2122 2706 
Q 2122 2638 2119 2591 
Q 2116 2544 2106 2517 
Q 2097 2491 2083 2477 
Q 2069 2463 2044 2463 
Q 2019 2463 1983 2477 
Q 1947 2491 1901 2505 
Q 1856 2519 1800 2531 
Q 1744 2544 1678 2544 
Q 1600 2544 1525 2512 
Q 1450 2481 1367 2409 
Q 1284 2338 1193 2219 
Q 1103 2100 994 1928 
L 994 78 
Q 994 53 981 36 
Q 969 19 941 6 
Q 913 -6 863 -12 
Q 813 -19 734 -19 
Q 659 -19 609 -12 
Q 559 -6 529 6 
Q 500 19 489 36 
Q 478 53 478 78 
L 478 2891 
Q 478 2916 487 2933 
Q 497 2950 525 2964 
Q 553 2978 597 2983 
Q 641 2988 713 2988 
Q 781 2988 826 2983 
Q 872 2978 897 2964 
Q 922 2950 933 2933 
Q 944 2916 944 2891 
L 944 2481 
Q 1059 2650 1161 2756 
Q 1263 2863 1353 2923 
Q 1444 2984 1533 3007 
Q 1622 3031 1713 3031 
Q 1753 3031 1804 3026 
Q 1856 3022 1912 3009 
Q 1969 2997 2014 2981 
Q 2059 2966 2078 2950 
Q 2097 2934 2103 2920 
Q 2109 2906 2114 2884 
Q 2119 2863 2120 2820 
Q 2122 2778 2122 2706 
z
" transform="scale(0.015625)"/>
       <path id="Calibri-102" d="M 2597 75 
Q 2597 38 2572 19 
Q 2547 0 2503 -9 
Q 2459 -19 2375 -19 
Q 2294 -19 2245 -9 
Q 2197 0 2175 19 
Q 2153 38 2153 75 
L 2153 356 
Q 1969 159 1742 50 
Q 1516 -59 1263 -59 
Q 1041 -59 861 -1 
Q 681 56 554 165 
Q 428 275 358 434 
Q 288 594 288 797 
Q 288 1034 384 1209 
Q 481 1384 662 1500 
Q 844 1616 1106 1673 
Q 1369 1731 1697 1731 
L 2084 1731 
L 2084 1950 
Q 2084 2113 2050 2238 
Q 2016 2363 1939 2445 
Q 1863 2528 1741 2570 
Q 1619 2613 1441 2613 
Q 1250 2613 1098 2567 
Q 947 2522 833 2467 
Q 719 2413 642 2367 
Q 566 2322 528 2322 
Q 503 2322 484 2334 
Q 466 2347 452 2372 
Q 438 2397 431 2436 
Q 425 2475 425 2522 
Q 425 2600 436 2645 
Q 447 2691 489 2731 
Q 531 2772 634 2826 
Q 738 2881 872 2926 
Q 1006 2972 1165 3001 
Q 1325 3031 1488 3031 
Q 1791 3031 2003 2962 
Q 2216 2894 2347 2761 
Q 2478 2628 2537 2431 
Q 2597 2234 2597 1972 
L 2597 75 
z
M 2084 1359 
L 1644 1359 
Q 1431 1359 1275 1323 
Q 1119 1288 1016 1217 
Q 913 1147 864 1048 
Q 816 950 816 822 
Q 816 603 955 473 
Q 1094 344 1344 344 
Q 1547 344 1720 447 
Q 1894 550 2084 763 
L 2084 1359 
z
" transform="scale(0.015625)"/>
       <path id="Calibri-189" d="M 3066 1528 
Q 3066 1159 2986 865 
Q 2906 572 2751 367 
Q 2597 163 2369 52 
Q 2141 -59 1847 -59 
Q 1722 -59 1615 -34 
Q 1509 -9 1407 44 
Q 1306 97 1206 178 
Q 1106 259 994 369 
L 994 -1038 
Q 994 -1063 981 -1081 
Q 969 -1100 941 -1112 
Q 913 -1125 863 -1131 
Q 813 -1138 734 -1138 
Q 659 -1138 609 -1131 
Q 559 -1125 529 -1112 
Q 500 -1100 489 -1081 
Q 478 -1063 478 -1038 
L 478 2891 
Q 478 2919 487 2936 
Q 497 2953 525 2965 
Q 553 2978 597 2983 
Q 641 2988 703 2988 
Q 769 2988 811 2983 
Q 853 2978 881 2965 
Q 909 2953 920 2936 
Q 931 2919 931 2891 
L 931 2513 
Q 1059 2644 1178 2741 
Q 1297 2838 1417 2902 
Q 1538 2966 1664 2998 
Q 1791 3031 1931 3031 
Q 2238 3031 2453 2912 
Q 2669 2794 2805 2587 
Q 2941 2381 3003 2107 
Q 3066 1834 3066 1528 
z
M 2522 1469 
Q 2522 1684 2489 1886 
Q 2456 2088 2376 2244 
Q 2297 2400 2162 2494 
Q 2028 2588 1828 2588 
Q 1728 2588 1631 2558 
Q 1534 2528 1434 2464 
Q 1334 2400 1225 2295 
Q 1116 2191 994 2038 
L 994 919 
Q 1206 659 1397 521 
Q 1588 384 1797 384 
Q 1991 384 2130 478 
Q 2269 572 2355 728 
Q 2441 884 2481 1078 
Q 2522 1272 2522 1469 
z
" transform="scale(0.015625)"/>
       <path id="Calibri-176" d="M 2900 78 
Q 2900 53 2887 36 
Q 2875 19 2847 6 
Q 2819 -6 2769 -12 
Q 2719 -19 2644 -19 
Q 2566 -19 2516 -12 
Q 2466 -6 2437 6 
Q 2409 19 2396 36 
Q 2384 53 2384 78 
L 2384 1725 
Q 2384 1966 2346 2112 
Q 2309 2259 2237 2365 
Q 2166 2472 2052 2528 
Q 1938 2584 1788 2584 
Q 1594 2584 1400 2446 
Q 1206 2309 994 2044 
L 994 78 
Q 994 53 981 36 
Q 969 19 941 6 
Q 913 -6 863 -12 
Q 813 -19 734 -19 
Q 659 -19 609 -12 
Q 559 -6 529 6 
Q 500 19 489 36 
Q 478 53 478 78 
L 478 2891 
Q 478 2916 487 2933 
Q 497 2950 525 2964 
Q 553 2978 597 2983 
Q 641 2988 713 2988 
Q 781 2988 826 2983 
Q 872 2978 897 2964 
Q 922 2950 933 2933 
Q 944 2916 944 2891 
L 944 2519 
Q 1181 2784 1417 2907 
Q 1653 3031 1894 3031 
Q 2175 3031 2367 2936 
Q 2559 2841 2678 2681 
Q 2797 2522 2848 2308 
Q 2900 2094 2900 1794 
L 2900 78 
z
" transform="scale(0.015625)"/>
       <path id="Calibri-11e" d="M 2878 1606 
Q 2878 1484 2817 1432 
Q 2756 1381 2678 1381 
L 834 1381 
Q 834 1147 881 959 
Q 928 772 1037 637 
Q 1147 503 1322 431 
Q 1497 359 1750 359 
Q 1950 359 2106 392 
Q 2263 425 2377 465 
Q 2491 506 2564 539 
Q 2638 572 2675 572 
Q 2697 572 2714 561 
Q 2731 550 2740 528 
Q 2750 506 2754 467 
Q 2759 428 2759 372 
Q 2759 331 2756 301 
Q 2753 272 2748 248 
Q 2744 225 2733 206 
Q 2722 188 2705 170 
Q 2688 153 2603 114 
Q 2519 75 2384 37 
Q 2250 0 2073 -29 
Q 1897 -59 1697 -59 
Q 1350 -59 1089 37 
Q 828 134 650 325 
Q 472 516 381 803 
Q 291 1091 291 1472 
Q 291 1834 384 2123 
Q 478 2413 654 2614 
Q 831 2816 1081 2923 
Q 1331 3031 1641 3031 
Q 1972 3031 2205 2925 
Q 2438 2819 2588 2639 
Q 2738 2459 2808 2217 
Q 2878 1975 2878 1700 
L 2878 1606 
z
M 2359 1759 
Q 2369 2166 2180 2397 
Q 1991 2628 1619 2628 
Q 1428 2628 1284 2556 
Q 1141 2484 1044 2365 
Q 947 2247 894 2089 
Q 841 1931 834 1759 
L 2359 1759 
z
" transform="scale(0.015625)"/>
       <path id="Calibri-1c0" d="M 2784 2897 
Q 2784 2884 2782 2870 
Q 2781 2856 2778 2840 
Q 2775 2825 2770 2806 
Q 2766 2788 2759 2766 
L 1800 94 
Q 1788 59 1767 37 
Q 1747 16 1706 3 
Q 1666 -9 1603 -14 
Q 1541 -19 1447 -19 
Q 1353 -19 1290 -12 
Q 1228 -6 1189 6 
Q 1150 19 1128 41 
Q 1106 63 1094 94 
L 138 2766 
Q 125 2803 117 2831 
Q 109 2859 107 2873 
Q 106 2888 106 2897 
Q 106 2922 118 2940 
Q 131 2959 161 2970 
Q 191 2981 239 2984 
Q 288 2988 359 2988 
Q 450 2988 504 2983 
Q 559 2978 589 2965 
Q 619 2953 633 2934 
Q 647 2916 659 2888 
L 1453 569 
L 1466 531 
L 1475 569 
L 2259 2888 
Q 2266 2916 2281 2934 
Q 2297 2953 2326 2965 
Q 2356 2978 2407 2983 
Q 2459 2988 2544 2988 
Q 2616 2988 2662 2984 
Q 2709 2981 2736 2968 
Q 2763 2956 2773 2939 
Q 2784 2922 2784 2897 
z
" transform="scale(0.015625)"/>
       <path id="Calibri-16f" d="M 994 78 
Q 994 53 981 36 
Q 969 19 941 6 
Q 913 -6 863 -12 
Q 813 -19 734 -19 
Q 659 -19 609 -12 
Q 559 -6 529 6 
Q 500 19 489 36 
Q 478 53 478 78 
L 478 4253 
Q 478 4278 489 4297 
Q 500 4316 529 4328 
Q 559 4341 609 4347 
Q 659 4353 734 4353 
Q 813 4353 863 4347 
Q 913 4341 941 4328 
Q 969 4316 981 4297 
Q 994 4278 994 4253 
L 994 78 
z
" transform="scale(0.015625)"/>
      </defs>
      <use xlink:href="#Calibri-4"/>
      <use xlink:href="#Calibri-68" transform="translate(56.296875 0)"/>
      <use xlink:href="#Calibri-12" transform="translate(120.453125 0)"/>
      <use xlink:href="#Calibri-3" transform="translate(173.78125 0)"/>
      <use xlink:href="#Calibri-1c1" transform="translate(196.390625 0)"/>
      <use xlink:href="#Calibri-15d" transform="translate(267.875 0)"/>
      <use xlink:href="#Calibri-19a" transform="translate(290.828125 0)"/>
      <use xlink:href="#Calibri-15a" transform="translate(324.328125 0)"/>
      <use xlink:href="#Calibri-3" transform="translate(376.875 0)"/>
      <use xlink:href="#Calibri-3f5" transform="translate(399.484375 0)"/>
      <use xlink:href="#Calibri-3f1" transform="translate(450.171875 0)"/>
      <use xlink:href="#Calibri-439" transform="translate(500.859375 0)"/>
      <use xlink:href="#Calibri-3" transform="translate(572.34375 0)"/>
      <use xlink:href="#Calibri-10f" transform="translate(594.953125 0)"/>
      <use xlink:href="#Calibri-17d" transform="translate(647.5 0)"/>
      <use xlink:href="#Calibri-17d" transform="translate(700.234375 0)"/>
      <use xlink:href="#Calibri-19a" transform="translate(752.96875 0)"/>
      <use xlink:href="#Calibri-190" transform="translate(786.46875 0)"/>
      <use xlink:href="#Calibri-19a" transform="translate(824.453125 0)"/>
      <use xlink:href="#Calibri-18c" transform="translate(857.953125 0)"/>
      <use xlink:href="#Calibri-102" transform="translate(890.765625 0)"/>
      <use xlink:href="#Calibri-189" transform="translate(938.671875 0)"/>
      <use xlink:href="#Calibri-3" transform="translate(991.21875 0)"/>
      <use xlink:href="#Calibri-15d" transform="translate(1013.828125 0)"/>
      <use xlink:href="#Calibri-176" transform="translate(1036.78125 0)"/>
      <use xlink:href="#Calibri-19a" transform="translate(1088.40625 0)"/>
      <use xlink:href="#Calibri-11e" transform="translate(1120.828125 0)"/>
      <use xlink:href="#Calibri-18c" transform="translate(1170.578125 0)"/>
      <use xlink:href="#Calibri-1c0" transform="translate(1206.359375 0)"/>
      <use xlink:href="#Calibri-102" transform="translate(1250.0625 0)"/>
      <use xlink:href="#Calibri-16f" transform="translate(1297.96875 0)"/>
     </g>
    </g>
   </g>
   <g id="matplotlib.axis_2">
    <g id="ytick_1">
     <g id="line2d_9">
      <defs>
       <path id="mb2ca1e9a55" d="M 0 0 
L -3.5 0 
" style="stroke: #043962; stroke-width: 0.8"/>
      </defs>
      <g>
       <use xlink:href="#mb2ca1e9a55" x="69.6175" y="35.175" style="fill: #043962; stroke: #043962; stroke-width: 0.8"/>
      </g>
     </g>
     <g id="text_10">
      <!-- Production, 1w -->
      <g style="fill: #043962" transform="translate(7.2 38.55) scale(0.09 -0.09)">
       <defs>
        <path id="Calibri-57" d="M 3022 2859 
Q 3022 2556 2922 2312 
Q 2822 2069 2636 1897 
Q 2450 1725 2179 1631 
Q 1909 1538 1534 1538 
L 1075 1538 
L 1075 81 
Q 1075 56 1061 37 
Q 1047 19 1017 8 
Q 988 -3 936 -11 
Q 884 -19 806 -19 
Q 728 -19 676 -11 
Q 625 -3 594 8 
Q 563 19 550 37 
Q 538 56 538 81 
L 538 3813 
Q 538 3938 603 3991 
Q 669 4044 750 4044 
L 1616 4044 
Q 1747 4044 1867 4033 
Q 1988 4022 2152 3986 
Q 2316 3950 2486 3851 
Q 2656 3753 2775 3609 
Q 2894 3466 2958 3277 
Q 3022 3088 3022 2859 
z
M 2456 2816 
Q 2456 3063 2364 3228 
Q 2272 3394 2136 3475 
Q 2000 3556 1854 3578 
Q 1709 3600 1572 3600 
L 1075 3600 
L 1075 1978 
L 1559 1978 
Q 1803 1978 1964 2040 
Q 2125 2103 2234 2214 
Q 2344 2325 2400 2479 
Q 2456 2634 2456 2816 
z
" transform="scale(0.015625)"/>
        <path id="Calibri-11a" d="M 2888 78 
Q 2888 53 2877 34 
Q 2866 16 2839 5 
Q 2813 -6 2769 -12 
Q 2725 -19 2663 -19 
Q 2597 -19 2553 -12 
Q 2509 -6 2481 5 
Q 2453 16 2440 34 
Q 2428 53 2428 78 
L 2428 450 
Q 2206 209 1967 75 
Q 1728 -59 1444 -59 
Q 1134 -59 915 61 
Q 697 181 561 386 
Q 425 591 362 867 
Q 300 1144 300 1450 
Q 300 1813 378 2105 
Q 456 2397 609 2603 
Q 763 2809 989 2920 
Q 1216 3031 1513 3031 
Q 1759 3031 1964 2923 
Q 2169 2816 2369 2606 
L 2369 4241 
Q 2369 4263 2380 4283 
Q 2391 4303 2422 4314 
Q 2453 4325 2501 4333 
Q 2550 4341 2625 4341 
Q 2703 4341 2753 4333 
Q 2803 4325 2831 4314 
Q 2859 4303 2873 4283 
Q 2888 4263 2888 4241 
L 2888 78 
z
M 2369 2056 
Q 2159 2316 1964 2452 
Q 1769 2588 1556 2588 
Q 1359 2588 1221 2494 
Q 1084 2400 998 2247 
Q 913 2094 873 1900 
Q 834 1706 834 1506 
Q 834 1294 867 1091 
Q 900 888 981 730 
Q 1063 572 1197 476 
Q 1331 381 1534 381 
Q 1638 381 1733 409 
Q 1828 438 1928 503 
Q 2028 569 2137 673 
Q 2247 778 2369 931 
L 2369 2056 
z
" transform="scale(0.015625)"/>
        <path id="Calibri-1b5" d="M 2888 78 
Q 2888 53 2877 36 
Q 2866 19 2837 6 
Q 2809 -6 2764 -12 
Q 2719 -19 2653 -19 
Q 2581 -19 2536 -12 
Q 2491 -6 2464 6 
Q 2438 19 2428 36 
Q 2419 53 2419 78 
L 2419 450 
Q 2178 184 1943 62 
Q 1709 -59 1469 -59 
Q 1188 -59 995 34 
Q 803 128 684 289 
Q 566 450 514 664 
Q 463 878 463 1184 
L 463 2891 
Q 463 2916 473 2933 
Q 484 2950 515 2964 
Q 547 2978 597 2983 
Q 647 2988 722 2988 
Q 797 2988 847 2983 
Q 897 2978 926 2964 
Q 956 2950 968 2933 
Q 981 2916 981 2891 
L 981 1253 
Q 981 1006 1017 857 
Q 1053 709 1126 604 
Q 1200 500 1312 442 
Q 1425 384 1575 384 
Q 1769 384 1961 521 
Q 2153 659 2369 925 
L 2369 2891 
Q 2369 2916 2380 2933 
Q 2391 2950 2422 2964 
Q 2453 2978 2501 2983 
Q 2550 2988 2628 2988 
Q 2703 2988 2753 2983 
Q 2803 2978 2831 2964 
Q 2859 2950 2873 2933 
Q 2888 2916 2888 2891 
L 2888 78 
z
" transform="scale(0.015625)"/>
        <path id="Calibri-110" d="M 2500 506 
Q 2500 453 2497 414 
Q 2494 375 2486 348 
Q 2478 322 2467 301 
Q 2456 281 2417 242 
Q 2378 203 2284 145 
Q 2191 88 2073 42 
Q 1956 -3 1818 -31 
Q 1681 -59 1534 -59 
Q 1231 -59 997 41 
Q 763 141 605 333 
Q 447 525 364 804 
Q 281 1084 281 1450 
Q 281 1866 382 2164 
Q 484 2463 661 2653 
Q 838 2844 1077 2936 
Q 1316 3028 1594 3028 
Q 1728 3028 1854 3003 
Q 1981 2978 2087 2937 
Q 2194 2897 2276 2844 
Q 2359 2791 2396 2753 
Q 2434 2716 2448 2694 
Q 2463 2672 2472 2642 
Q 2481 2613 2484 2575 
Q 2488 2538 2488 2481 
Q 2488 2359 2459 2311 
Q 2431 2263 2391 2263 
Q 2344 2263 2283 2314 
Q 2222 2366 2128 2428 
Q 2034 2491 1901 2542 
Q 1769 2594 1588 2594 
Q 1216 2594 1017 2308 
Q 819 2022 819 1478 
Q 819 1206 870 1001 
Q 922 797 1022 659 
Q 1122 522 1267 455 
Q 1413 388 1600 388 
Q 1778 388 1912 444 
Q 2047 500 2145 567 
Q 2244 634 2311 689 
Q 2378 744 2416 744 
Q 2438 744 2453 731 
Q 2469 719 2480 689 
Q 2491 659 2495 614 
Q 2500 569 2500 506 
z
" transform="scale(0.015625)"/>
        <path id="Calibri-19f" d="M 2925 2972 
Q 3019 2972 3053 2930 
Q 3088 2888 3088 2806 
L 3088 78 
Q 3088 53 3075 36 
Q 3063 19 3033 6 
Q 3003 -6 2953 -12 
Q 2903 -19 2831 -19 
Q 2753 -19 2703 -12 
Q 2653 -6 2623 6 
Q 2594 19 2581 36 
Q 2569 53 2569 78 
L 2569 2544 
L 1116 2544 
L 1116 975 
Q 1116 684 1202 536 
Q 1288 388 1509 388 
Q 1581 388 1637 402 
Q 1694 416 1737 431 
Q 1781 447 1812 461 
Q 1844 475 1869 475 
Q 1884 475 1898 467 
Q 1913 459 1920 437 
Q 1928 416 1934 378 
Q 1941 341 1941 284 
Q 1941 194 1928 142 
Q 1916 91 1891 64 
Q 1866 38 1816 16 
Q 1766 -6 1702 -20 
Q 1638 -34 1566 -43 
Q 1494 -53 1422 -53 
Q 1203 -53 1047 5 
Q 891 63 791 180 
Q 691 297 645 476 
Q 600 656 600 900 
L 600 2544 
L 206 2544 
Q 159 2544 131 2594 
Q 103 2644 103 2756 
Q 103 2816 111 2856 
Q 119 2897 131 2923 
Q 144 2950 164 2961 
Q 184 2972 209 2972 
L 600 2972 
L 600 3641 
Q 600 3663 611 3681 
Q 622 3700 651 3714 
Q 681 3728 731 3734 
Q 781 3741 856 3741 
Q 934 3741 984 3734 
Q 1034 3728 1062 3714 
Q 1091 3700 1103 3681 
Q 1116 3663 1116 3641 
L 1116 2972 
L 2925 2972 
z
M 3147 3841 
Q 3147 3659 3078 3593 
Q 3010 3528 2825 3528 
Q 2644 3528 2577 3592 
Q 2510 3656 2510 3834 
Q 2510 4016 2578 4081 
Q 2647 4147 2832 4147 
Q 3013 4147 3080 4083 
Q 3147 4019 3147 3841 
z
M 2094 2972 
L 2094 2972 
z
" transform="scale(0.015625)"/>
        <path id="Calibri-355" d="M 1159 447 
Q 1159 350 1150 269 
Q 1141 188 1119 116 
Q 1097 44 1061 -26 
Q 1025 -97 972 -175 
L 544 -819 
Q 528 -841 508 -856 
Q 488 -872 458 -884 
Q 428 -897 389 -901 
Q 350 -906 291 -906 
Q 238 -906 202 -901 
Q 166 -897 150 -886 
Q 134 -875 132 -856 
Q 131 -838 144 -813 
L 559 47 
L 559 447 
Q 559 531 576 581 
Q 594 631 631 656 
Q 669 681 725 690 
Q 781 700 863 700 
Q 941 700 997 690 
Q 1053 681 1089 656 
Q 1125 631 1142 581 
Q 1159 531 1159 447 
z
" transform="scale(0.015625)"/>
        <path id="Calibri-3ed" d="M 2897 213 
Q 2897 153 2887 112 
Q 2878 72 2862 47 
Q 2847 22 2826 11 
Q 2806 0 2784 0 
L 672 0 
Q 650 0 631 11 
Q 613 22 595 47 
Q 578 72 568 112 
Q 559 153 559 213 
Q 559 269 568 309 
Q 578 350 592 376 
Q 606 403 626 417 
Q 647 431 672 431 
L 1516 431 
L 1516 3506 
L 734 3041 
Q 675 3009 639 3003 
Q 603 2997 581 3017 
Q 559 3038 551 3084 
Q 544 3131 544 3203 
Q 544 3256 548 3293 
Q 553 3331 562 3356 
Q 572 3381 589 3400 
Q 606 3419 634 3438 
L 1566 4034 
Q 1578 4044 1597 4050 
Q 1616 4056 1644 4062 
Q 1672 4069 1709 4070 
Q 1747 4072 1803 4072 
Q 1878 4072 1928 4065 
Q 1978 4059 2006 4048 
Q 2034 4038 2043 4020 
Q 2053 4003 2053 3984 
L 2053 431 
L 2784 431 
Q 2809 431 2831 417 
Q 2853 403 2867 376 
Q 2881 350 2889 309 
Q 2897 269 2897 213 
z
" transform="scale(0.015625)"/>
       </defs>
       <use xlink:href="#Calibri-57"/>
       <use xlink:href="#Calibri-18c" transform="translate(51.65625 0)"/>
       <use xlink:href="#Calibri-17d" transform="translate(84.90625 0)"/>
       <use xlink:href="#Calibri-11a" transform="translate(137.640625 0)"/>
       <use xlink:href="#Calibri-1b5" transform="translate(190.1875 0)"/>
       <use xlink:href="#Calibri-110" transform="translate(242.734375 0)"/>
       <use xlink:href="#Calibri-19f" transform="translate(285.015625 0)"/>
       <use xlink:href="#Calibri-17d" transform="translate(340.734375 0)"/>
       <use xlink:href="#Calibri-176" transform="translate(393.46875 0)"/>
       <use xlink:href="#Calibri-355" transform="translate(446.015625 0)"/>
       <use xlink:href="#Calibri-3" transform="translate(470.96875 0)"/>
       <use xlink:href="#Calibri-3ed" transform="translate(493.578125 0)"/>
       <use xlink:href="#Calibri-1c1" transform="translate(544.265625 0)"/>
      </g>
     </g>
    </g>
    <g id="ytick_2">
     <g id="line2d_10">
      <g>
       <use xlink:href="#mb2ca1e9a55" x="69.6175" y="63.975" style="fill: #043962; stroke: #043962; stroke-width: 0.8"/>
      </g>
     </g>
     <g id="text_11">
      <!-- Production, 2w -->
      <g style="fill: #043962" transform="translate(7.2 67.35) scale(0.09 -0.09)">
       <use xlink:href="#Calibri-57"/>
       <use xlink:href="#Calibri-18c" transform="translate(51.65625 0)"/>
       <use xlink:href="#Calibri-17d" transform="translate(84.90625 0)"/>
       <use xlink:href="#Calibri-11a" transform="translate(137.640625 0)"/>
       <use xlink:href="#Calibri-1b5" transform="translate(190.1875 0)"/>
       <use xlink:href="#Calibri-110" transform="translate(242.734375 0)"/>
       <use xlink:href="#Calibri-19f" transform="translate(285.015625 0)"/>
       <use xlink:href="#Calibri-17d" transform="translate(340.734375 0)"/>
       <use xlink:href="#Calibri-176" transform="translate(393.46875 0)"/>
       <use xlink:href="#Calibri-355" transform="translate(446.015625 0)"/>
       <use xlink:href="#Calibri-3" transform="translate(470.96875 0)"/>
       <use xlink:href="#Calibri-3ee" transform="translate(493.578125 0)"/>
       <use xlink:href="#Calibri-1c1" transform="translate(544.265625 0)"/>
      </g>
     </g>
    </g>
    <g id="ytick_3">
     <g id="line2d_11">
      <g>
       <use xlink:href="#mb2ca1e9a55" x="69.6175" y="92.775" style="fill: #043962; stroke: #043962; stroke-width: 0.8"/>
      </g>
     </g>
     <g id="text_12">
      <!-- Production, 3w -->
      <g style="fill: #043962" transform="translate(7.2 96.15) scale(0.09 -0.09)">
       <use xlink:href="#Calibri-57"/>
       <use xlink:href="#Calibri-18c" transform="translate(51.65625 0)"/>
       <use xlink:href="#Calibri-17d" transform="translate(84.90625 0)"/>
       <use xlink:href="#Calibri-11a" transform="translate(137.640625 0)"/>
       <use xlink:href="#Calibri-1b5" transform="translate(190.1875 0)"/>
       <use xlink:href="#Calibri-110" transform="translate(242.734375 0)"/>
       <use xlink:href="#Calibri-19f" transform="translate(285.015625 0)"/>
       <use xlink:href="#Calibri-17d" transform="translate(340.734375 0)"/>
       <use xlink:href="#Calibri-176" transform="translate(393.46875 0)"/>
       <use xlink:href="#Calibri-355" transform="translate(446.015625 0)"/>
       <use xlink:href="#Calibri-3" transform="translate(470.96875 0)"/>
       <use xlink:href="#Calibri-3ef" transform="translate(493.578125 0)"/>
       <use xlink:href="#Calibri-1c1" transform="translate(544.265625 0)"/>
      </g>
     </g>
    </g>
    <g id="ytick_4">
     <g id="line2d_12">
      <g>
       <use xlink:href="#mb2ca1e9a55" x="69.6175" y="121.575" style="fill: #043962; stroke: #043962; stroke-width: 0.8"/>
      </g>
     </g>
     <g id="text_13">
      <!-- Production, 4w -->
      <g style="fill: #043962" transform="translate(7.2 124.95) scale(0.09 -0.09)">
       <use xlink:href="#Calibri-57"/>
       <use xlink:href="#Calibri-18c" transform="translate(51.65625 0)"/>
       <use xlink:href="#Calibri-17d" transform="translate(84.90625 0)"/>
       <use xlink:href="#Calibri-11a" transform="translate(137.640625 0)"/>
       <use xlink:href="#Calibri-1b5" transform="translate(190.1875 0)"/>
       <use xlink:href="#Calibri-110" transform="translate(242.734375 0)"/>
       <use xlink:href="#Calibri-19f" transform="translate(285.015625 0)"/>
       <use xlink:href="#Calibri-17d" transform="translate(340.734375 0)"/>
       <use xlink:href="#Calibri-176" transform="translate(393.46875 0)"/>
       <use xlink:href="#Calibri-355" transform="translate(446.015625 0)"/>
       <use xlink:href="#Calibri-3" transform="translate(470.96875 0)"/>
       <use xlink:href="#Calibri-3f0" transform="translate(493.578125 0)"/>
       <use xlink:href="#Calibri-1c1" transform="translate(544.265625 0)"/>
      </g>
     </g>
    </g>
    <g id="ytick_5">
     <g id="line2d_13">
      <g>
       <use xlink:href="#mb2ca1e9a55" x="69.6175" y="150.375" style="fill: #043962; stroke: #043962; stroke-width: 0.8"/>
      </g>
     </g>
     <g id="text_14">
      <!-- Naive, 1w -->
      <g style="fill: #043962" transform="translate(26.699062 153.75) scale(0.09 -0.09)">
       <defs>
        <path id="Calibri-45" d="M 3594 222 
Q 3594 159 3573 115 
Q 3553 72 3520 44 
Q 3488 16 3447 3 
Q 3406 -9 3366 -9 
L 3194 -9 
Q 3113 -9 3052 8 
Q 2991 25 2936 70 
Q 2881 116 2826 194 
Q 2772 272 2706 394 
L 1431 2694 
Q 1331 2872 1229 3067 
Q 1128 3263 1041 3447 
L 1034 3447 
Q 1041 3222 1044 2987 
Q 1047 2753 1047 2522 
L 1047 81 
Q 1047 59 1034 39 
Q 1022 19 992 8 
Q 963 -3 914 -11 
Q 866 -19 791 -19 
Q 716 -19 667 -11 
Q 619 -3 591 8 
Q 563 19 550 39 
Q 538 59 538 81 
L 538 3813 
Q 538 3938 606 3991 
Q 675 4044 756 4044 
L 1013 4044 
Q 1103 4044 1164 4028 
Q 1225 4013 1273 3977 
Q 1322 3941 1367 3877 
Q 1413 3813 1466 3716 
L 2447 1941 
Q 2538 1778 2622 1623 
Q 2706 1469 2784 1319 
Q 2863 1169 2939 1023 
Q 3016 878 3091 731 
L 3094 731 
Q 3088 978 3086 1245 
Q 3084 1513 3084 1759 
L 3084 3953 
Q 3084 3975 3096 3994 
Q 3109 4013 3139 4027 
Q 3169 4041 3217 4047 
Q 3266 4053 3344 4053 
Q 3413 4053 3463 4047 
Q 3513 4041 3541 4027 
Q 3569 4013 3581 3994 
Q 3594 3975 3594 3953 
L 3594 222 
z
" transform="scale(0.015625)"/>
       </defs>
       <use xlink:href="#Calibri-45"/>
       <use xlink:href="#Calibri-102" transform="translate(64.546875 0)"/>
       <use xlink:href="#Calibri-15d" transform="translate(112.453125 0)"/>
       <use xlink:href="#Calibri-1c0" transform="translate(135.40625 0)"/>
       <use xlink:href="#Calibri-11e" transform="translate(179.609375 0)"/>
       <use xlink:href="#Calibri-355" transform="translate(229.359375 0)"/>
       <use xlink:href="#Calibri-3" transform="translate(254.3125 0)"/>
       <use xlink:href="#Calibri-3ed" transform="translate(276.921875 0)"/>
       <use xlink:href="#Calibri-1c1" transform="translate(327.609375 0)"/>
      </g>
     </g>
    </g>
    <g id="ytick_6">
     <g id="line2d_14">
      <g>
       <use xlink:href="#mb2ca1e9a55" x="69.6175" y="179.175" style="fill: #043962; stroke: #043962; stroke-width: 0.8"/>
      </g>
     </g>
     <g id="text_15">
      <!-- Naive, 2w -->
      <g style="fill: #043962" transform="translate(26.699062 182.55) scale(0.09 -0.09)">
       <use xlink:href="#Calibri-45"/>
       <use xlink:href="#Calibri-102" transform="translate(64.546875 0)"/>
       <use xlink:href="#Calibri-15d" transform="translate(112.453125 0)"/>
       <use xlink:href="#Calibri-1c0" transform="translate(135.40625 0)"/>
       <use xlink:href="#Calibri-11e" transform="translate(179.609375 0)"/>
       <use xlink:href="#Calibri-355" transform="translate(229.359375 0)"/>
       <use xlink:href="#Calibri-3" transform="translate(254.3125 0)"/>
       <use xlink:href="#Calibri-3ee" transform="translate(276.921875 0)"/>
       <use xlink:href="#Calibri-1c1" transform="translate(327.609375 0)"/>
      </g>
     </g>
    </g>
    <g id="ytick_7">
     <g id="line2d_15">
      <g>
       <use xlink:href="#mb2ca1e9a55" x="69.6175" y="207.975" style="fill: #043962; stroke: #043962; stroke-width: 0.8"/>
      </g>
     </g>
     <g id="text_16">
      <!-- Naive, 3w -->
      <g style="fill: #043962" transform="translate(26.699062 211.35) scale(0.09 -0.09)">
       <use xlink:href="#Calibri-45"/>
       <use xlink:href="#Calibri-102" transform="translate(64.546875 0)"/>
       <use xlink:href="#Calibri-15d" transform="translate(112.453125 0)"/>
       <use xlink:href="#Calibri-1c0" transform="translate(135.40625 0)"/>
       <use xlink:href="#Calibri-11e" transform="translate(179.609375 0)"/>
       <use xlink:href="#Calibri-355" transform="translate(229.359375 0)"/>
       <use xlink:href="#Calibri-3" transform="translate(254.3125 0)"/>
       <use xlink:href="#Calibri-3ef" transform="translate(276.921875 0)"/>
       <use xlink:href="#Calibri-1c1" transform="translate(327.609375 0)"/>
      </g>
     </g>
    </g>
    <g id="ytick_8">
     <g id="line2d_16">
      <g>
       <use xlink:href="#mb2ca1e9a55" x="69.6175" y="236.775" style="fill: #043962; stroke: #043962; stroke-width: 0.8"/>
      </g>
     </g>
     <g id="text_17">
      <!-- Naive, 4w -->
      <g style="fill: #043962" transform="translate(26.699062 240.15) scale(0.09 -0.09)">
       <use xlink:href="#Calibri-45"/>
       <use xlink:href="#Calibri-102" transform="translate(64.546875 0)"/>
       <use xlink:href="#Calibri-15d" transform="translate(112.453125 0)"/>
       <use xlink:href="#Calibri-1c0" transform="translate(135.40625 0)"/>
       <use xlink:href="#Calibri-11e" transform="translate(179.609375 0)"/>
       <use xlink:href="#Calibri-355" transform="translate(229.359375 0)"/>
       <use xlink:href="#Calibri-3" transform="translate(254.3125 0)"/>
       <use xlink:href="#Calibri-3f0" transform="translate(276.921875 0)"/>
       <use xlink:href="#Calibri-1c1" transform="translate(327.609375 0)"/>
      </g>
     </g>
    </g>
   </g>
   <g id="line2d_17">
    <path d="M 232.920791 246.855 
L 232.920791 25.095 
" clip-path="url(#p512dc04896)" style="fill: none; stroke-dasharray: 4.81,2.08; stroke-dashoffset: 0; stroke: #043962; stroke-width: 1.3"/>
   </g>
   <g id="patch_3">
    <path d="M 69.6175 246.855 
L 69.6175 25.095 
" style="fill: none; stroke: #043962; stroke-width: 0.8; stroke-linejoin: miter; stroke-linecap: square"/>
   </g>
   <g id="patch_4">
    <path d="M 69.6175 246.855 
L 449.0575 246.855 
" style="fill: none; stroke: #043962; stroke-width: 0.8; stroke-linejoin: miter; stroke-linecap: square"/>
   </g>
   <g id="text_18">
    <!-- chance -->
    <g style="fill: #043962" transform="translate(233.881399 13.575) scale(0.085 -0.085)">
     <defs>
      <path id="Calibri-Italic-110" d="M 2669 2644 
Q 2669 2588 2658 2528 
Q 2647 2469 2625 2417 
Q 2603 2366 2573 2331 
Q 2544 2297 2506 2297 
Q 2463 2297 2416 2342 
Q 2369 2388 2292 2444 
Q 2216 2500 2098 2547 
Q 1981 2594 1800 2594 
Q 1600 2594 1445 2511 
Q 1291 2428 1177 2295 
Q 1063 2163 988 1994 
Q 913 1825 866 1653 
Q 819 1481 798 1320 
Q 778 1159 778 1041 
Q 778 719 918 553 
Q 1059 388 1338 388 
Q 1541 388 1686 438 
Q 1831 488 1932 552 
Q 2034 616 2100 666 
Q 2166 716 2216 716 
Q 2241 716 2255 692 
Q 2269 669 2269 625 
Q 2269 588 2262 536 
Q 2256 484 2242 429 
Q 2228 375 2208 328 
Q 2188 281 2150 242 
Q 2113 203 2019 147 
Q 1925 91 1801 45 
Q 1678 0 1534 -29 
Q 1391 -59 1238 -59 
Q 734 -59 486 197 
Q 238 453 238 959 
Q 238 1150 270 1376 
Q 303 1603 381 1833 
Q 459 2063 581 2278 
Q 703 2494 881 2661 
Q 1059 2828 1293 2928 
Q 1528 3028 1831 3028 
Q 1956 3028 2072 3008 
Q 2188 2988 2289 2953 
Q 2391 2919 2473 2867 
Q 2556 2816 2601 2775 
Q 2647 2734 2658 2706 
Q 2669 2678 2669 2644 
z
" transform="scale(0.015625)"/>
      <path id="Calibri-Italic-15a" d="M 2553 78 
Q 2547 53 2531 36 
Q 2516 19 2483 6 
Q 2450 -6 2400 -12 
Q 2350 -19 2272 -19 
Q 2197 -19 2148 -12 
Q 2100 -6 2073 6 
Q 2047 19 2039 36 
Q 2031 53 2034 78 
L 2381 1816 
Q 2397 1897 2408 1998 
Q 2419 2100 2419 2175 
Q 2419 2266 2400 2341 
Q 2381 2416 2339 2470 
Q 2297 2525 2230 2556 
Q 2163 2588 2066 2588 
Q 1900 2588 1726 2491 
Q 1553 2394 1404 2223 
Q 1256 2053 1139 1822 
Q 1022 1591 969 1325 
L 719 78 
Q 713 53 697 36 
Q 681 19 650 6 
Q 619 -6 567 -12 
Q 516 -19 441 -19 
Q 363 -19 314 -12 
Q 266 -6 239 6 
Q 213 19 205 36 
Q 197 53 203 78 
L 1034 4253 
Q 1041 4278 1055 4297 
Q 1069 4316 1101 4328 
Q 1134 4341 1186 4347 
Q 1238 4353 1316 4353 
Q 1391 4353 1439 4347 
Q 1488 4341 1514 4328 
Q 1541 4316 1547 4297 
Q 1553 4278 1550 4253 
L 1300 2981 
Q 1284 2900 1262 2815 
Q 1241 2731 1217 2648 
Q 1194 2566 1170 2491 
Q 1147 2416 1128 2359 
Q 1178 2469 1284 2586 
Q 1391 2703 1534 2801 
Q 1678 2900 1851 2965 
Q 2025 3031 2209 3031 
Q 2409 3031 2550 2973 
Q 2691 2916 2780 2814 
Q 2869 2713 2909 2572 
Q 2950 2431 2950 2269 
Q 2950 2156 2937 2050 
Q 2925 1944 2903 1834 
L 2553 78 
z
" transform="scale(0.015625)"/>
      <path id="Calibri-Italic-102" d="M 2538 78 
Q 2525 25 2469 3 
Q 2413 -19 2281 -19 
Q 2219 -19 2178 -12 
Q 2138 -6 2113 5 
Q 2088 16 2078 33 
Q 2069 50 2078 78 
L 2181 609 
Q 2141 509 2034 390 
Q 1928 272 1783 172 
Q 1638 72 1459 6 
Q 1281 -59 1097 -59 
Q 847 -59 683 28 
Q 519 116 422 259 
Q 325 403 289 584 
Q 253 766 253 956 
Q 253 1131 286 1353 
Q 319 1575 392 1806 
Q 466 2038 583 2256 
Q 700 2475 865 2648 
Q 1031 2822 1250 2926 
Q 1469 3031 1747 3031 
Q 2025 3031 2223 2918 
Q 2422 2806 2578 2609 
L 2638 2894 
Q 2650 2944 2709 2966 
Q 2769 2988 2894 2988 
Q 2956 2988 2998 2983 
Q 3041 2978 3066 2965 
Q 3091 2953 3097 2934 
Q 3103 2916 3100 2894 
L 2538 78 
z
M 2441 2156 
Q 2294 2372 2123 2480 
Q 1953 2588 1741 2588 
Q 1572 2588 1436 2508 
Q 1300 2428 1195 2297 
Q 1091 2166 1014 1998 
Q 938 1831 889 1653 
Q 841 1475 817 1303 
Q 794 1131 794 994 
Q 794 884 811 776 
Q 828 669 876 580 
Q 925 491 1009 436 
Q 1094 381 1228 381 
Q 1400 381 1573 476 
Q 1747 572 1897 740 
Q 2047 909 2162 1137 
Q 2278 1366 2334 1641 
L 2441 2156 
z
" transform="scale(0.015625)"/>
      <path id="Calibri-Italic-176" d="M 2950 2269 
Q 2950 2159 2937 2053 
Q 2925 1947 2903 1834 
L 2550 78 
Q 2544 53 2530 36 
Q 2516 19 2483 6 
Q 2450 -6 2400 -12 
Q 2350 -19 2272 -19 
Q 2197 -19 2148 -12 
Q 2100 -6 2073 6 
Q 2047 19 2039 36 
Q 2031 53 2034 78 
L 2381 1816 
Q 2403 1913 2411 2003 
Q 2419 2094 2419 2163 
Q 2419 2353 2337 2470 
Q 2256 2588 2066 2588 
Q 1900 2588 1726 2492 
Q 1553 2397 1404 2230 
Q 1256 2063 1139 1833 
Q 1022 1603 969 1334 
L 719 78 
Q 713 53 697 36 
Q 681 19 650 6 
Q 619 -6 567 -12 
Q 516 -19 441 -19 
Q 363 -19 314 -12 
Q 266 -6 239 6 
Q 213 19 205 36 
Q 197 53 203 78 
L 769 2894 
Q 772 2916 786 2934 
Q 800 2953 829 2965 
Q 859 2978 904 2983 
Q 950 2988 1013 2988 
Q 1078 2988 1120 2983 
Q 1163 2978 1186 2965 
Q 1209 2953 1215 2934 
Q 1222 2916 1219 2894 
L 1113 2356 
Q 1159 2463 1265 2581 
Q 1372 2700 1519 2800 
Q 1666 2900 1842 2965 
Q 2019 3031 2209 3031 
Q 2419 3031 2559 2967 
Q 2700 2903 2787 2798 
Q 2875 2694 2912 2556 
Q 2950 2419 2950 2269 
z
" transform="scale(0.015625)"/>
      <path id="Calibri-Italic-11e" d="M 2891 2316 
Q 2891 2100 2791 1928 
Q 2691 1756 2478 1634 
Q 2266 1513 1934 1447 
Q 1603 1381 1141 1381 
L 809 1381 
Q 788 1278 780 1181 
Q 772 1084 772 1000 
Q 772 688 926 522 
Q 1081 356 1428 356 
Q 1628 356 1787 386 
Q 1947 416 2064 450 
Q 2181 484 2256 514 
Q 2331 544 2359 544 
Q 2388 544 2402 523 
Q 2416 503 2416 466 
Q 2416 434 2409 390 
Q 2403 347 2390 301 
Q 2378 256 2358 215 
Q 2338 175 2313 147 
Q 2275 109 2179 73 
Q 2084 38 1953 8 
Q 1822 -22 1665 -40 
Q 1509 -59 1353 -59 
Q 1075 -59 865 3 
Q 656 66 517 195 
Q 378 325 309 519 
Q 241 713 241 975 
Q 241 1178 280 1411 
Q 319 1644 403 1872 
Q 488 2100 622 2309 
Q 756 2519 942 2678 
Q 1128 2838 1372 2934 
Q 1616 3031 1922 3031 
Q 2184 3031 2367 2965 
Q 2550 2900 2667 2797 
Q 2784 2694 2837 2567 
Q 2891 2441 2891 2316 
z
M 2363 2269 
Q 2363 2428 2238 2526 
Q 2113 2625 1881 2625 
Q 1678 2625 1522 2554 
Q 1366 2484 1245 2365 
Q 1125 2247 1039 2089 
Q 953 1931 900 1756 
L 1219 1756 
Q 1547 1756 1767 1797 
Q 1988 1838 2120 1908 
Q 2253 1978 2308 2072 
Q 2363 2166 2363 2269 
z
" transform="scale(0.015625)"/>
     </defs>
     <use xlink:href="#Calibri-Italic-110"/>
     <use xlink:href="#Calibri-Italic-15a" transform="translate(41.609375 0)"/>
     <use xlink:href="#Calibri-Italic-102" transform="translate(93.03125 0)"/>
     <use xlink:href="#Calibri-Italic-176" transform="translate(144.453125 0)"/>
     <use xlink:href="#Calibri-Italic-110" transform="translate(195.875 0)"/>
     <use xlink:href="#Calibri-Italic-11e" transform="translate(236.84375 0)"/>
    </g>
   </g>
   <g id="line2d_18">
    <path d="M 218.719386 35.175 
L 299.660118 35.175 
" clip-path="url(#p512dc04896)" style="fill: none; stroke: #008bd2; stroke-width: 2.4; stroke-linecap: round"/>
   </g>
   <g id="line2d_19">
    <path d="M 116.915213 63.975 
L 228.85042 63.975 
" clip-path="url(#p512dc04896)" style="fill: none; stroke: #008bd2; stroke-width: 2.4; stroke-linecap: round"/>
   </g>
   <g id="line2d_20">
    <path d="M 144.125131 92.775 
L 254.838081 92.775 
" clip-path="url(#p512dc04896)" style="fill: none; stroke: #008bd2; stroke-width: 2.4; stroke-linecap: round"/>
   </g>
   <g id="line2d_21">
    <path d="M 179.819533 121.575 
L 272.878309 121.575 
" clip-path="url(#p512dc04896)" style="fill: none; stroke: #008bd2; stroke-width: 2.4; stroke-linecap: round"/>
   </g>
   <g id="line2d_22">
    <path d="M 186.725296 150.375 
L 370.355481 150.375 
" clip-path="url(#p512dc04896)" style="fill: none; stroke: #ffba00; stroke-width: 2.4; stroke-linecap: round"/>
   </g>
   <g id="line2d_23">
    <path d="M 211.723288 179.175 
L 348.678331 179.175 
" clip-path="url(#p512dc04896)" style="fill: none; stroke: #ffba00; stroke-width: 2.4; stroke-linecap: round"/>
   </g>
   <g id="line2d_24">
    <path d="M 189.162469 207.975 
L 317.083989 207.975 
" clip-path="url(#p512dc04896)" style="fill: none; stroke: #ffba00; stroke-width: 2.4; stroke-linecap: round"/>
   </g>
   <g id="line2d_25">
    <path d="M 164.669802 236.775 
L 291.196173 236.775 
" clip-path="url(#p512dc04896)" style="fill: none; stroke: #ffba00; stroke-width: 2.4; stroke-linecap: round"/>
   </g>
   <g id="text_19">
    <!--  2   0.797 -->
    <g style="fill: #043962" transform="translate(451.459019 37.408984) scale(0.086 -0.086)">
     <defs>
      <path id="DejaVuSansMono-3" transform="scale(0.015625)"/>
      <path id="DejaVuSansMono-15" d="M 1166 531 
L 3309 531 
L 3309 0 
L 475 0 
L 475 531 
Q 1059 1147 1496 1619 
Q 1934 2091 2100 2284 
Q 2413 2666 2522 2902 
Q 2631 3138 2631 3384 
Q 2631 3775 2401 3997 
Q 2172 4219 1772 4219 
Q 1488 4219 1175 4116 
Q 863 4013 513 3803 
L 513 4441 
Q 834 4594 1145 4672 
Q 1456 4750 1759 4750 
Q 2444 4750 2861 4386 
Q 3278 4022 3278 3431 
Q 3278 3131 3139 2831 
Q 3000 2531 2688 2169 
Q 2513 1966 2180 1606 
Q 1847 1247 1166 531 
z
" transform="scale(0.015625)"/>
      <path id="DejaVuSansMono-13" d="M 1509 2344 
Q 1509 2516 1629 2641 
Q 1750 2766 1919 2766 
Q 2094 2766 2219 2641 
Q 2344 2516 2344 2344 
Q 2344 2169 2220 2047 
Q 2097 1925 1919 1925 
Q 1744 1925 1626 2044 
Q 1509 2163 1509 2344 
z
M 1925 4250 
Q 1484 4250 1267 3775 
Q 1050 3300 1050 2328 
Q 1050 1359 1267 884 
Q 1484 409 1925 409 
Q 2369 409 2586 884 
Q 2803 1359 2803 2328 
Q 2803 3300 2586 3775 
Q 2369 4250 1925 4250 
z
M 1925 4750 
Q 2672 4750 3055 4137 
Q 3438 3525 3438 2328 
Q 3438 1134 3055 521 
Q 2672 -91 1925 -91 
Q 1178 -91 797 521 
Q 416 1134 416 2328 
Q 416 3525 797 4137 
Q 1178 4750 1925 4750 
z
" transform="scale(0.015625)"/>
      <path id="DejaVuSansMono-11" d="M 1528 953 
L 2316 953 
L 2316 0 
L 1528 0 
L 1528 953 
z
" transform="scale(0.015625)"/>
      <path id="DejaVuSansMono-1a" d="M 434 4666 
L 3372 4666 
L 3372 4397 
L 1703 0 
L 1044 0 
L 2669 4134 
L 434 4134 
L 434 4666 
z
" transform="scale(0.015625)"/>
      <path id="DejaVuSansMono-1c" d="M 1863 2069 
Q 2266 2069 2495 2359 
Q 2725 2650 2725 3163 
Q 2725 3675 2495 3965 
Q 2266 4256 1863 4256 
Q 1444 4256 1231 3979 
Q 1019 3703 1019 3163 
Q 1019 2619 1230 2344 
Q 1441 2069 1863 2069 
z
M 738 97 
L 738 678 
Q 934 563 1156 502 
Q 1378 441 1619 441 
Q 2219 441 2526 892 
Q 2834 1344 2834 2222 
Q 2688 1909 2422 1742 
Q 2156 1575 1813 1575 
Q 1138 1575 767 1990 
Q 397 2406 397 3169 
Q 397 3922 776 4336 
Q 1156 4750 1850 4750 
Q 2663 4750 3041 4165 
Q 3419 3581 3419 2328 
Q 3419 1150 2964 529 
Q 2509 -91 1644 -91 
Q 1416 -91 1184 -42 
Q 953 6 738 97 
z
" transform="scale(0.015625)"/>
     </defs>
     <use xlink:href="#DejaVuSansMono-3"/>
     <use xlink:href="#DejaVuSansMono-15" transform="translate(60.203125 0)"/>
     <use xlink:href="#DejaVuSansMono-3" transform="translate(120.40625 0)"/>
     <use xlink:href="#DejaVuSansMono-3" transform="translate(180.609375 0)"/>
     <use xlink:href="#DejaVuSansMono-3" transform="translate(240.8125 0)"/>
     <use xlink:href="#DejaVuSansMono-13" transform="translate(301.015625 0)"/>
     <use xlink:href="#DejaVuSansMono-11" transform="translate(361.21875 0)"/>
     <use xlink:href="#DejaVuSansMono-1a" transform="translate(421.421875 0)"/>
     <use xlink:href="#DejaVuSansMono-1c" transform="translate(481.625 0)"/>
     <use xlink:href="#DejaVuSansMono-1a" transform="translate(541.828125 0)"/>
    </g>
   </g>
   <g id="text_20">
    <!--  4   0.388 -->
    <g style="fill: #043962" transform="translate(451.459019 66.208984) scale(0.086 -0.086)">
     <defs>
      <path id="DejaVuSansMono-17" d="M 2297 4091 
L 825 1625 
L 2297 1625 
L 2297 4091 
z
M 2194 4666 
L 2925 4666 
L 2925 1625 
L 3547 1625 
L 3547 1113 
L 2925 1113 
L 2925 0 
L 2297 0 
L 2297 1113 
L 319 1113 
L 319 1709 
L 2194 4666 
z
" transform="scale(0.015625)"/>
      <path id="DejaVuSansMono-16" d="M 2425 2497 
Q 2884 2375 3128 2064 
Q 3372 1753 3372 1288 
Q 3372 644 2939 276 
Q 2506 -91 1741 -91 
Q 1419 -91 1084 -31 
Q 750 28 428 141 
L 428 769 
Q 747 603 1056 522 
Q 1366 441 1672 441 
Q 2191 441 2469 675 
Q 2747 909 2747 1350 
Q 2747 1756 2469 1995 
Q 2191 2234 1716 2234 
L 1234 2234 
L 1234 2753 
L 1716 2753 
Q 2150 2753 2394 2943 
Q 2638 3134 2638 3475 
Q 2638 3834 2411 4026 
Q 2184 4219 1766 4219 
Q 1488 4219 1191 4156 
Q 894 4094 569 3969 
L 569 4550 
Q 947 4650 1242 4700 
Q 1538 4750 1766 4750 
Q 2447 4750 2855 4408 
Q 3263 4066 3263 3500 
Q 3263 3116 3048 2859 
Q 2834 2603 2425 2497 
z
" transform="scale(0.015625)"/>
      <path id="DejaVuSansMono-1b" d="M 1925 2216 
Q 1503 2216 1273 1980 
Q 1044 1744 1044 1313 
Q 1044 881 1276 642 
Q 1509 403 1925 403 
Q 2350 403 2579 639 
Q 2809 875 2809 1313 
Q 2809 1741 2576 1978 
Q 2344 2216 1925 2216 
z
M 1375 2478 
Q 972 2581 745 2862 
Q 519 3144 519 3541 
Q 519 4097 897 4423 
Q 1275 4750 1925 4750 
Q 2578 4750 2956 4423 
Q 3334 4097 3334 3541 
Q 3334 3144 3107 2862 
Q 2881 2581 2478 2478 
Q 2947 2375 3195 2062 
Q 3444 1750 3444 1253 
Q 3444 622 3041 265 
Q 2638 -91 1925 -91 
Q 1213 -91 811 264 
Q 409 619 409 1247 
Q 409 1747 657 2061 
Q 906 2375 1375 2478 
z
M 1147 3481 
Q 1147 3106 1347 2909 
Q 1547 2713 1925 2713 
Q 2306 2713 2506 2909 
Q 2706 3106 2706 3481 
Q 2706 3863 2507 4063 
Q 2309 4263 1925 4263 
Q 1547 4263 1347 4061 
Q 1147 3859 1147 3481 
z
" transform="scale(0.015625)"/>
     </defs>
     <use xlink:href="#DejaVuSansMono-3"/>
     <use xlink:href="#DejaVuSansMono-17" transform="translate(60.203125 0)"/>
     <use xlink:href="#DejaVuSansMono-3" transform="translate(120.40625 0)"/>
     <use xlink:href="#DejaVuSansMono-3" transform="translate(180.609375 0)"/>
     <use xlink:href="#DejaVuSansMono-3" transform="translate(240.8125 0)"/>
     <use xlink:href="#DejaVuSansMono-13" transform="translate(301.015625 0)"/>
     <use xlink:href="#DejaVuSansMono-11" transform="translate(361.21875 0)"/>
     <use xlink:href="#DejaVuSansMono-16" transform="translate(421.421875 0)"/>
     <use xlink:href="#DejaVuSansMono-1b" transform="translate(481.625 0)"/>
     <use xlink:href="#DejaVuSansMono-1b" transform="translate(541.828125 0)"/>
    </g>
   </g>
   <g id="text_21">
    <!--  5   0.590 -->
    <g style="fill: #043962" transform="translate(451.459019 95.008984) scale(0.086 -0.086)">
     <defs>
      <path id="DejaVuSansMono-18" d="M 647 4666 
L 3009 4666 
L 3009 4134 
L 1222 4134 
L 1222 2988 
Q 1356 3038 1492 3061 
Q 1628 3084 1766 3084 
Q 2491 3084 2916 2656 
Q 3341 2228 3341 1497 
Q 3341 759 2895 334 
Q 2450 -91 1678 -91 
Q 1306 -91 998 -41 
Q 691 9 447 109 
L 447 750 
Q 734 594 1025 517 
Q 1316 441 1619 441 
Q 2141 441 2423 716 
Q 2706 991 2706 1497 
Q 2706 1997 2414 2275 
Q 2122 2553 1600 2553 
Q 1347 2553 1106 2495 
Q 866 2438 647 2322 
L 647 4666 
z
" transform="scale(0.015625)"/>
     </defs>
     <use xlink:href="#DejaVuSansMono-3"/>
     <use xlink:href="#DejaVuSansMono-18" transform="translate(60.203125 0)"/>
     <use xlink:href="#DejaVuSansMono-3" transform="translate(120.40625 0)"/>
     <use xlink:href="#DejaVuSansMono-3" transform="translate(180.609375 0)"/>
     <use xlink:href="#DejaVuSansMono-3" transform="translate(240.8125 0)"/>
     <use xlink:href="#DejaVuSansMono-13" transform="translate(301.015625 0)"/>
     <use xlink:href="#DejaVuSansMono-11" transform="translate(361.21875 0)"/>
     <use xlink:href="#DejaVuSansMono-18" transform="translate(421.421875 0)"/>
     <use xlink:href="#DejaVuSansMono-1c" transform="translate(481.625 0)"/>
     <use xlink:href="#DejaVuSansMono-13" transform="translate(541.828125 0)"/>
    </g>
   </g>
   <g id="text_22">
    <!--  6   0.904 -->
    <g style="fill: #043962" transform="translate(451.459019 123.808984) scale(0.086 -0.086)">
     <defs>
      <path id="DejaVuSansMono-19" d="M 3097 4563 
L 3097 3981 
Q 2900 4097 2678 4158 
Q 2456 4219 2216 4219 
Q 1616 4219 1306 3767 
Q 997 3316 997 2438 
Q 1147 2750 1412 2917 
Q 1678 3084 2022 3084 
Q 2697 3084 3067 2670 
Q 3438 2256 3438 1497 
Q 3438 741 3056 325 
Q 2675 -91 1984 -91 
Q 1172 -91 794 492 
Q 416 1075 416 2328 
Q 416 3509 870 4129 
Q 1325 4750 2188 4750 
Q 2419 4750 2650 4701 
Q 2881 4653 3097 4563 
z
M 1972 2591 
Q 1569 2591 1337 2300 
Q 1106 2009 1106 1497 
Q 1106 984 1337 693 
Q 1569 403 1972 403 
Q 2391 403 2603 679 
Q 2816 956 2816 1497 
Q 2816 2041 2603 2316 
Q 2391 2591 1972 2591 
z
" transform="scale(0.015625)"/>
     </defs>
     <use xlink:href="#DejaVuSansMono-3"/>
     <use xlink:href="#DejaVuSansMono-19" transform="translate(60.203125 0)"/>
     <use xlink:href="#DejaVuSansMono-3" transform="translate(120.40625 0)"/>
     <use xlink:href="#DejaVuSansMono-3" transform="translate(180.609375 0)"/>
     <use xlink:href="#DejaVuSansMono-3" transform="translate(240.8125 0)"/>
     <use xlink:href="#DejaVuSansMono-13" transform="translate(301.015625 0)"/>
     <use xlink:href="#DejaVuSansMono-11" transform="translate(361.21875 0)"/>
     <use xlink:href="#DejaVuSansMono-1c" transform="translate(421.421875 0)"/>
     <use xlink:href="#DejaVuSansMono-13" transform="translate(481.625 0)"/>
     <use xlink:href="#DejaVuSansMono-17" transform="translate(541.828125 0)"/>
    </g>
   </g>
   <g id="text_23">
    <!-- 11   0.279 -->
    <g style="fill: #043962" transform="translate(451.459019 152.608984) scale(0.086 -0.086)">
     <defs>
      <path id="DejaVuSansMono-14" d="M 844 531 
L 1825 531 
L 1825 4097 
L 769 3859 
L 769 4434 
L 1819 4666 
L 2450 4666 
L 2450 531 
L 3419 531 
L 3419 0 
L 844 0 
L 844 531 
z
" transform="scale(0.015625)"/>
     </defs>
     <use xlink:href="#DejaVuSansMono-14"/>
     <use xlink:href="#DejaVuSansMono-14" transform="translate(60.203125 0)"/>
     <use xlink:href="#DejaVuSansMono-3" transform="translate(120.40625 0)"/>
     <use xlink:href="#DejaVuSansMono-3" transform="translate(180.609375 0)"/>
     <use xlink:href="#DejaVuSansMono-3" transform="translate(240.8125 0)"/>
     <use xlink:href="#DejaVuSansMono-13" transform="translate(301.015625 0)"/>
     <use xlink:href="#DejaVuSansMono-11" transform="translate(361.21875 0)"/>
     <use xlink:href="#DejaVuSansMono-15" transform="translate(421.421875 0)"/>
     <use xlink:href="#DejaVuSansMono-1a" transform="translate(481.625 0)"/>
     <use xlink:href="#DejaVuSansMono-1c" transform="translate(541.828125 0)"/>
    </g>
   </g>
   <g id="text_24">
    <!-- 19   0.192 -->
    <g style="fill: #043962" transform="translate(451.459019 181.408984) scale(0.086 -0.086)">
     <use xlink:href="#DejaVuSansMono-14"/>
     <use xlink:href="#DejaVuSansMono-1c" transform="translate(60.203125 0)"/>
     <use xlink:href="#DejaVuSansMono-3" transform="translate(120.40625 0)"/>
     <use xlink:href="#DejaVuSansMono-3" transform="translate(180.609375 0)"/>
     <use xlink:href="#DejaVuSansMono-3" transform="translate(240.8125 0)"/>
     <use xlink:href="#DejaVuSansMono-13" transform="translate(301.015625 0)"/>
     <use xlink:href="#DejaVuSansMono-11" transform="translate(361.21875 0)"/>
     <use xlink:href="#DejaVuSansMono-14" transform="translate(421.421875 0)"/>
     <use xlink:href="#DejaVuSansMono-1c" transform="translate(481.625 0)"/>
     <use xlink:href="#DejaVuSansMono-15" transform="translate(541.828125 0)"/>
    </g>
   </g>
   <g id="text_25">
    <!-- 25   0.529 -->
    <g style="fill: #043962" transform="translate(451.459019 210.208984) scale(0.086 -0.086)">
     <use xlink:href="#DejaVuSansMono-15"/>
     <use xlink:href="#DejaVuSansMono-18" transform="translate(60.203125 0)"/>
     <use xlink:href="#DejaVuSansMono-3" transform="translate(120.40625 0)"/>
     <use xlink:href="#DejaVuSansMono-3" transform="translate(180.609375 0)"/>
     <use xlink:href="#DejaVuSansMono-3" transform="translate(240.8125 0)"/>
     <use xlink:href="#DejaVuSansMono-13" transform="translate(301.015625 0)"/>
     <use xlink:href="#DejaVuSansMono-11" transform="translate(361.21875 0)"/>
     <use xlink:href="#DejaVuSansMono-18" transform="translate(421.421875 0)"/>
     <use xlink:href="#DejaVuSansMono-15" transform="translate(481.625 0)"/>
     <use xlink:href="#DejaVuSansMono-1c" transform="translate(541.828125 0)"/>
    </g>
   </g>
   <g id="text_26">
    <!-- 29   0.823 -->
    <g style="fill: #043962" transform="translate(451.459019 239.008984) scale(0.086 -0.086)">
     <use xlink:href="#DejaVuSansMono-15"/>
     <use xlink:href="#DejaVuSansMono-1c" transform="translate(60.203125 0)"/>
     <use xlink:href="#DejaVuSansMono-3" transform="translate(120.40625 0)"/>
     <use xlink:href="#DejaVuSansMono-3" transform="translate(180.609375 0)"/>
     <use xlink:href="#DejaVuSansMono-3" transform="translate(240.8125 0)"/>
     <use xlink:href="#DejaVuSansMono-13" transform="translate(301.015625 0)"/>
     <use xlink:href="#DejaVuSansMono-11" transform="translate(361.21875 0)"/>
     <use xlink:href="#DejaVuSansMono-1b" transform="translate(421.421875 0)"/>
     <use xlink:href="#DejaVuSansMono-15" transform="translate(481.625 0)"/>
     <use xlink:href="#DejaVuSansMono-16" transform="translate(541.828125 0)"/>
    </g>
   </g>
   <g id="text_27">
    <!-- pos.    p -->
    <g style="fill: #8c8c9a" transform="translate(451.459019 15.757031) scale(0.084 -0.084)">
     <defs>
      <path id="DejaVuSansMono-53" d="M 1172 441 
L 1172 -1331 
L 594 -1331 
L 594 3500 
L 1172 3500 
L 1172 3053 
Q 1316 3313 1555 3448 
Q 1794 3584 2106 3584 
Q 2741 3584 3102 3093 
Q 3463 2603 3463 1734 
Q 3463 881 3100 395 
Q 2738 -91 2106 -91 
Q 1788 -91 1548 45 
Q 1309 181 1172 441 
z
M 2859 1747 
Q 2859 2416 2648 2756 
Q 2438 3097 2022 3097 
Q 1603 3097 1387 2755 
Q 1172 2413 1172 1747 
Q 1172 1084 1387 740 
Q 1603 397 2022 397 
Q 2438 397 2648 737 
Q 2859 1078 2859 1747 
z
" transform="scale(0.015625)"/>
      <path id="DejaVuSansMono-52" d="M 1925 3097 
Q 1488 3097 1263 2756 
Q 1038 2416 1038 1747 
Q 1038 1081 1263 739 
Q 1488 397 1925 397 
Q 2366 397 2591 739 
Q 2816 1081 2816 1747 
Q 2816 2416 2591 2756 
Q 2366 3097 1925 3097 
z
M 1925 3584 
Q 2653 3584 3039 3112 
Q 3425 2641 3425 1747 
Q 3425 850 3040 379 
Q 2656 -91 1925 -91 
Q 1197 -91 812 379 
Q 428 850 428 1747 
Q 428 2641 812 3112 
Q 1197 3584 1925 3584 
z
" transform="scale(0.015625)"/>
      <path id="DejaVuSansMono-56" d="M 3041 3378 
L 3041 2816 
Q 2794 2959 2544 3031 
Q 2294 3103 2034 3103 
Q 1644 3103 1451 2976 
Q 1259 2850 1259 2591 
Q 1259 2356 1403 2240 
Q 1547 2125 2119 2016 
L 2350 1972 
Q 2778 1891 2998 1647 
Q 3219 1403 3219 1013 
Q 3219 494 2850 201 
Q 2481 -91 1825 -91 
Q 1566 -91 1281 -36 
Q 997 19 666 128 
L 666 722 
Q 988 556 1281 473 
Q 1575 391 1838 391 
Q 2219 391 2428 545 
Q 2638 700 2638 978 
Q 2638 1378 1872 1531 
L 1847 1538 
L 1631 1581 
Q 1134 1678 906 1908 
Q 678 2138 678 2534 
Q 678 3038 1018 3311 
Q 1359 3584 1991 3584 
Q 2272 3584 2531 3532 
Q 2791 3481 3041 3378 
z
" transform="scale(0.015625)"/>
     </defs>
     <use xlink:href="#DejaVuSansMono-53"/>
     <use xlink:href="#DejaVuSansMono-52" transform="translate(60.203125 0)"/>
     <use xlink:href="#DejaVuSansMono-56" transform="translate(120.40625 0)"/>
     <use xlink:href="#DejaVuSansMono-11" transform="translate(180.609375 0)"/>
     <use xlink:href="#DejaVuSansMono-3" transform="translate(240.8125 0)"/>
     <use xlink:href="#DejaVuSansMono-3" transform="translate(301.015625 0)"/>
     <use xlink:href="#DejaVuSansMono-3" transform="translate(361.21875 0)"/>
     <use xlink:href="#DejaVuSansMono-3" transform="translate(421.421875 0)"/>
     <use xlink:href="#DejaVuSansMono-53" transform="translate(481.625 0)"/>
    </g>
   </g>
   <g id="line2d_26">
    <defs>
     <path id="m102797f05c" d="M 0 3.5 
C 0.928211 3.5 1.81853 3.131218 2.474874 2.474874 
C 3.131218 1.81853 3.5 0.928211 3.5 0 
C 3.5 -0.928211 3.131218 -1.81853 2.474874 -2.474874 
C 1.81853 -3.131218 0.928211 -3.5 0 -3.5 
C -0.928211 -3.5 -1.81853 -3.131218 -2.474874 -2.474874 
C -3.131218 -1.81853 -3.5 -0.928211 -3.5 0 
C -3.5 0.928211 -3.131218 1.81853 -2.474874 2.474874 
C -1.81853 3.131218 -0.928211 3.5 0 3.5 
z
" style="stroke: #ffffff; stroke-width: 1.1"/>
    </defs>
    <g clip-path="url(#p512dc04896)">
     <use xlink:href="#m102797f05c" x="259.378204" y="35.175" style="fill: #008bd2; stroke: #ffffff; stroke-width: 1.1"/>
    </g>
   </g>
   <g id="line2d_27">
    <g clip-path="url(#p512dc04896)">
     <use xlink:href="#m102797f05c" x="171.33011" y="63.975" style="fill: #008bd2; stroke: #ffffff; stroke-width: 1.1"/>
    </g>
   </g>
   <g id="line2d_28">
    <g clip-path="url(#p512dc04896)">
     <use xlink:href="#m102797f05c" x="198.255387" y="92.775" style="fill: #008bd2; stroke: #ffffff; stroke-width: 1.1"/>
    </g>
   </g>
   <g id="line2d_29">
    <g clip-path="url(#p512dc04896)">
     <use xlink:href="#m102797f05c" x="225.547707" y="121.575" style="fill: #008bd2; stroke: #ffffff; stroke-width: 1.1"/>
    </g>
   </g>
   <g id="line2d_30">
    <defs>
     <path id="m1b8d7162fd" d="M 0 3.5 
C 0.928211 3.5 1.81853 3.131218 2.474874 2.474874 
C 3.131218 1.81853 3.5 0.928211 3.5 0 
C 3.5 -0.928211 3.131218 -1.81853 2.474874 -2.474874 
C 1.81853 -3.131218 0.928211 -3.5 0 -3.5 
C -0.928211 -3.5 -1.81853 -3.131218 -2.474874 -2.474874 
C -3.131218 -1.81853 -3.5 -0.928211 -3.5 0 
C -3.5 0.928211 -3.131218 1.81853 -2.474874 2.474874 
C -1.81853 3.131218 -0.928211 3.5 0 3.5 
z
" style="stroke: #ffffff; stroke-width: 1.1"/>
    </defs>
    <g clip-path="url(#p512dc04896)">
     <use xlink:href="#m1b8d7162fd" x="282.383895" y="150.375" style="fill: #ffba00; stroke: #ffffff; stroke-width: 1.1"/>
    </g>
   </g>
   <g id="line2d_31">
    <g clip-path="url(#p512dc04896)">
     <use xlink:href="#m1b8d7162fd" x="281.447726" y="179.175" style="fill: #ffba00; stroke: #ffffff; stroke-width: 1.1"/>
    </g>
   </g>
   <g id="line2d_32">
    <g clip-path="url(#p512dc04896)">
     <use xlink:href="#m1b8d7162fd" x="254.630523" y="207.975" style="fill: #ffba00; stroke: #ffffff; stroke-width: 1.1"/>
    </g>
   </g>
   <g id="line2d_33">
    <g clip-path="url(#p512dc04896)">
     <use xlink:href="#m1b8d7162fd" x="225.359787" y="236.775" style="fill: #ffba00; stroke: #ffffff; stroke-width: 1.1"/>
    </g>
   </g>
  </g>
 </g>
 <defs>
  <clipPath id="p512dc04896">
   <rect x="69.6175" y="25.095" width="379.44" height="221.76"/>
  </clipPath>
 </defs>
</svg>
