<svg xmlns="http://www.w3.org/2000/svg" viewBox="0 0 1200 474" width="1200" height="474" font-family="Calibri, Carlito, Arial, Helvetica, sans-serif">
<rect width="1200" height="474" fill="#fff"/>
<rect x="49.1" y="228" width="247.1" height="68" fill="#EBF3F9"/>
<text x="172.6" y="336" font-size="24" font-weight="700" fill="#176F98" text-anchor="middle">BASELINE</text>
<rect x="296.2" y="228" width="247.1" height="68" fill="#fff"/>
<text x="419.7" y="336" font-size="24" font-weight="700" fill="#176F98" text-anchor="middle">TIPPING POINT</text>
<rect x="543.2" y="228" width="247.1" height="68" fill="#EBF3F9"/>
<text x="666.8" y="336" font-size="24" font-weight="700" fill="#176F98" text-anchor="middle">THE SQUEEZE</text>
<rect x="790.3" y="228" width="247.1" height="68" fill="#fff"/>
<text x="913.8" y="336" font-size="24" font-weight="700" fill="#176F98" text-anchor="middle">RUPTURE</text>
<rect x="1037.4" y="228" width="123.5" height="68" fill="#EBF3F9"/>
<text x="1099.1" y="336" font-size="24" font-weight="700" fill="#176F98" text-anchor="middle">RECOVERY</text>
<line x1="50" y1="262" x2="1160" y2="262" stroke="#043962" stroke-width="5"/>
<line x1="80.0" y1="251" x2="80.0" y2="273" stroke="#043962" stroke-width="2.5"/>
<line x1="141.8" y1="251" x2="141.8" y2="273" stroke="#043962" stroke-width="2.5"/>
<line x1="203.5" y1="251" x2="203.5" y2="273" stroke="#043962" stroke-width="2.5"/>
<line x1="265.3" y1="251" x2="265.3" y2="273" stroke="#043962" stroke-width="2.5"/>
<line x1="327.1" y1="251" x2="327.1" y2="273" stroke="#043962" stroke-width="2.5"/>
<line x1="388.8" y1="251" x2="388.8" y2="273" stroke="#043962" stroke-width="2.5"/>
<line x1="450.6" y1="251" x2="450.6" y2="273" stroke="#043962" stroke-width="2.5"/>
<line x1="512.4" y1="251" x2="512.4" y2="273" stroke="#043962" stroke-width="2.5"/>
<line x1="574.1" y1="251" x2="574.1" y2="273" stroke="#043962" stroke-width="2.5"/>
<line x1="635.9" y1="251" x2="635.9" y2="273" stroke="#043962" stroke-width="2.5"/>
<line x1="697.6" y1="251" x2="697.6" y2="273" stroke="#043962" stroke-width="2.5"/>
<line x1="759.4" y1="251" x2="759.4" y2="273" stroke="#043962" stroke-width="2.5"/>
<line x1="821.2" y1="251" x2="821.2" y2="273" stroke="#043962" stroke-width="2.5"/>
<line x1="882.9" y1="251" x2="882.9" y2="273" stroke="#043962" stroke-width="2.5"/>
<line x1="944.7" y1="251" x2="944.7" y2="273" stroke="#043962" stroke-width="2.5"/>
<line x1="1006.5" y1="251" x2="1006.5" y2="273" stroke="#043962" stroke-width="2.5"/>
<line x1="1068.2" y1="251" x2="1068.2" y2="273" stroke="#043962" stroke-width="2.5"/>
<line x1="1130.0" y1="251" x2="1130.0" y2="273" stroke="#043962" stroke-width="2.5"/>
<line x1="388.8" y1="262" x2="388.8" y2="200" stroke="#043962" stroke-width="5"/>
<circle cx="388.8" cy="262" r="14" fill="#FFDA65" stroke="#fff" stroke-width="3"/>
<text x="388.8" y="186" font-size="30" font-weight="700" fill="#043962" text-anchor="middle">Texas freeze</text>
<line x1="635.9" y1="262" x2="635.9" y2="146" stroke="#CDCEDA" stroke-width="3"/>
<circle cx="635.9" cy="262" r="10" fill="#008BD2" stroke="#fff" stroke-width="3"/>
<text x="635.9" y="132" font-size="26" font-weight="400" fill="#043962" text-anchor="middle">Taiwan drought</text>
<line x1="821.2" y1="262" x2="821.2" y2="200" stroke="#CDCEDA" stroke-width="3"/>
<circle cx="821.2" cy="262" r="10" fill="#008BD2" stroke="#fff" stroke-width="3"/>
<text x="821.2" y="186" font-size="26" font-weight="400" fill="#043962" text-anchor="middle">order bullwhip</text>
<line x1="1006.5" y1="262" x2="1006.5" y2="146" stroke="#CDCEDA" stroke-width="3"/>
<circle cx="1006.5" cy="262" r="10" fill="#008BD2" stroke="#fff" stroke-width="3"/>
<text x="1006.5" y="132" font-size="26" font-weight="400" fill="#043962" text-anchor="middle">polysilicon ×3</text>
<text x="20" y="38" font-size="29" font-weight="700" fill="#043962">18 rounds, 5 acts, 12 calibrated events</text>
</svg>