<svg xmlns="http://www.w3.org/2000/svg" viewBox="0 0 1600 400" width="1600" height="400" font-family="Calibri, Carlito, Arial, Helvetica, sans-serif">
<rect width="1600" height="400" fill="#fff"/>
<rect x="1012" y="14" width="14" height="372" fill="#FFDA65"/>
<text x="333.4" y="46" font-size="20" fill="#043962" text-anchor="middle">Ripple-effect</text>
<text x="333.4" y="72" font-size="20" fill="#043962" text-anchor="middle">models</text>
<text x="484.2" y="46" font-size="20" fill="#043962" text-anchor="middle">Markov and</text>
<text x="484.2" y="72" font-size="20" fill="#043962" text-anchor="middle">dyn. Bayesian</text>
<text x="635.0" y="46" font-size="20" fill="#043962" text-anchor="middle">Bayesian SC</text>
<text x="635.0" y="72" font-size="20" fill="#043962" text-anchor="middle">risk networks</text>
<text x="785.8" y="46" font-size="20" fill="#043962" text-anchor="middle">TTR / TTS</text>
<text x="785.8" y="72" font-size="20" fill="#043962" text-anchor="middle">stress tests</text>
<text x="936.6" y="46" font-size="20" fill="#043962" text-anchor="middle">Everstream,</text>
<text x="936.6" y="72" font-size="20" fill="#043962" text-anchor="middle">Resilinc, Interos</text>
<text x="1303.0" y="62" font-size="31" fill="#043962" font-weight="700" text-anchor="middle">SupplyScore</text>
<line x1="24" y1="96" x2="1580" y2="96" stroke="#CDCEDA" stroke-width="2"/>
<line x1="24" y1="194" x2="1580" y2="194" stroke="#CDCEDA" stroke-width="2"/>
<line x1="24" y1="292" x2="1580" y2="292" stroke="#CDCEDA" stroke-width="2"/>
<line x1="24" y1="390" x2="1580" y2="390" stroke="#CDCEDA" stroke-width="2"/>
<line x1="258" y1="96" x2="258" y2="390" stroke="#CDCEDA" stroke-width="2"/>
<text x="24" y="136" font-size="26" fill="#043962">Scores physical</text>
<text x="24" y="168" font-size="26" fill="#043962">reality</text>
<text x="24" y="234" font-size="26" fill="#043962">Scores human</text>
<text x="24" y="266" font-size="26" fill="#043962">declaration</text>
<text x="24" y="350" font-size="26" fill="#043962">Scores the gap</text>
<circle cx="333.4" cy="145" r="30" fill="#008BD2"/>
<path d="M320.5 145.9 L329.5 155.8 L347.2 134.2" fill="none" stroke="#fff" stroke-width="6" stroke-linecap="round" stroke-linejoin="round"/>
<circle cx="484.2" cy="145" r="30" fill="#008BD2"/>
<path d="M471.3 145.9 L480.3 155.8 L498.0 134.2" fill="none" stroke="#fff" stroke-width="6" stroke-linecap="round" stroke-linejoin="round"/>
<circle cx="635.0" cy="145" r="30" fill="#008BD2"/>
<path d="M622.1 145.9 L631.1 155.8 L648.8 134.2" fill="none" stroke="#fff" stroke-width="6" stroke-linecap="round" stroke-linejoin="round"/>
<circle cx="785.8" cy="145" r="30" fill="#008BD2"/>
<path d="M772.9 145.9 L781.9 155.8 L799.6 134.2" fill="none" stroke="#fff" stroke-width="6" stroke-linecap="round" stroke-linejoin="round"/>
<circle cx="936.6" cy="145" r="30" fill="#008BD2"/>
<path d="M923.7 145.9 L932.7 155.8 L950.4 134.2" fill="none" stroke="#fff" stroke-width="6" stroke-linecap="round" stroke-linejoin="round"/>
<circle cx="1303.0" cy="145" r="30" fill="#008BD2"/>
<path d="M1290.1 145.9 L1299.1 155.8 L1316.8 134.2" fill="none" stroke="#fff" stroke-width="6" stroke-linecap="round" stroke-linejoin="round"/>
<circle cx="333.4" cy="243" r="30" fill="none" stroke="#CDCEDA" stroke-width="5"/><line x1="314.2" y1="262.2" x2="352.6" y2="223.8" stroke="#CDCEDA" stroke-width="5" stroke-linecap="round"/>
<circle cx="484.20000000000005" cy="243" r="30" fill="none" stroke="#CDCEDA" stroke-width="5"/><line x1="465.0" y1="262.2" x2="503.4" y2="223.8" stroke="#CDCEDA" stroke-width="5" stroke-linecap="round"/>
<circle cx="635.0" cy="243" r="30" fill="none" stroke="#CDCEDA" stroke-width="5"/><line x1="615.8" y1="262.2" x2="654.2" y2="223.8" stroke="#CDCEDA" stroke-width="5" stroke-linecap="round"/>
<circle cx="785.8000000000001" cy="243" r="30" fill="none" stroke="#CDCEDA" stroke-width="5"/><line x1="766.6" y1="262.2" x2="805.0" y2="223.8" stroke="#CDCEDA" stroke-width="5" stroke-linecap="round"/>
<circle cx="936.6" cy="243" r="30" fill="none" stroke="#CDCEDA" stroke-width="5"/><line x1="917.4" y1="262.2" x2="955.8" y2="223.8" stroke="#CDCEDA" stroke-width="5" stroke-linecap="round"/>
<circle cx="1303.0" cy="243" r="30" fill="#FFDA65"/>
<path d="M1290.1 243.9 L1299.1 253.8 L1316.8 232.2" fill="none" stroke="#043962" stroke-width="6" stroke-linecap="round" stroke-linejoin="round"/>
<circle cx="333.4" cy="341" r="30" fill="none" stroke="#CDCEDA" stroke-width="5"/><line x1="314.2" y1="360.2" x2="352.6" y2="321.8" stroke="#CDCEDA" stroke-width="5" stroke-linecap="round"/>
<circle cx="484.20000000000005" cy="341" r="30" fill="none" stroke="#CDCEDA" stroke-width="5"/><line x1="465.0" y1="360.2" x2="503.4" y2="321.8" stroke="#CDCEDA" stroke-width="5" stroke-linecap="round"/>
<circle cx="635.0" cy="341" r="30" fill="none" stroke="#CDCEDA" stroke-width="5"/><line x1="615.8" y1="360.2" x2="654.2" y2="321.8" stroke="#CDCEDA" stroke-width="5" stroke-linecap="round"/>
<circle cx="785.8000000000001" cy="341" r="30" fill="none" stroke="#CDCEDA" stroke-width="5"/><line x1="766.6" y1="360.2" x2="805.0" y2="321.8" stroke="#CDCEDA" stroke-width="5" stroke-linecap="round"/>
<circle cx="936.6" cy="341" r="30" fill="none" stroke="#CDCEDA" stroke-width="5"/><line x1="917.4" y1="360.2" x2="955.8" y2="321.8" stroke="#CDCEDA" stroke-width="5" stroke-linecap="round"/>
<circle cx="1303.0" cy="341" r="30" fill="#FFDA65"/>
<path d="M1290.1 341.9 L1299.1 351.8 L1316.8 330.2" fill="none" stroke="#043962" stroke-width="6" stroke-linecap="round" stroke-linejoin="round"/>
</svg>